<?xml version="1.0" encoding="UTF-8"?>
<svg id="Calque_1" data-name="Calque 1" xmlns="http://www.w3.org/2000/svg" viewBox="0 0 1500 1663">
  <defs>
    <style>
      .cls-1 {
        fill: #7b5196;
        stroke-width: 0px;
      }
    </style>
  </defs>
  <circle class="cls-1" cx="750.1" cy="292.5" r="33.49"/>
  <rect class="cls-1" x="716.6" y="292.5" width="66.98" height="35.92"/>
  <path class="cls-1" d="M1056.18,1333s-147.87-246.46-218.02-551.68c-70.15-305.23-53.08-434.01-53.08-434.01h-69.96s17.06,128.78-53.08,434.01c-70.15,305.23-218.02,551.68-218.02,551.68h133.29c-1.07-7.81-1.67-15.76-1.67-23.86,0-96.36,78.12-174.48,174.48-174.48s174.48,78.12,174.48,174.48c0,8.1-.6,16.06-1.67,23.86h133.24ZM668.59,1011.65l52.46-118.45c10.91-24.63,45.86-24.63,56.77,0l52.46,118.45h-161.7Z"/>
  <rect class="cls-1" x="688.59" y="320.12" width="123.07" height="38.87"/>
  <path class="cls-1" d="M750.12,276.08c-3.63,0-6.58-2.94-6.58-6.58v-65.05c0-3.63,2.94-6.58,6.58-6.58s6.58,2.94,6.58,6.58v65.05c0,3.63-2.94,6.58-6.58,6.58Z"/>
  <path class="cls-1" d="M780.21,726.81c-36.54-180.84-36.67-373.6-36.66-375.52l13.15.02c0,1.91.13,193.4,36.4,372.9l-12.89,2.61Z"/>
  <rect class="cls-1" x="500.99" y="1109.43" width="162.95" height="13.15" transform="translate(-672.56 1214.14) rotate(-66.91)"/>
  <rect class="cls-1" x="841.21" y="914.24" width="13.15" height="110.71" transform="translate(-335.97 462.08) rotate(-25.63)"/>
  <rect class="cls-1" x="545.06" y="1011.65" width="410.09" height="49.09"/>
  <rect class="cls-1" x="649.66" y="714.85" width="197.71" height="39.38"/>
</svg>