<?xml version="1.0" encoding="utf-8"?>
<svg xmlns="http://www.w3.org/2000/svg" xmlns:xlink="http://www.w3.org/1999/xlink" id="Calque_1" viewBox="0 0 500 354.07">
  <defs>
    <style>
      .cls-1, .cls-2 {
        fill: none;
      }

      .cls-3 {
        fill: #ddd;
      }

      .cls-4 {
        fill: #aa4d33;
      }

      .cls-5 {
        fill: #d0d0d0;
      }

      .cls-6 {
        fill: #f2f2f1;
      }

      .cls-7 {
        fill: #65b5e6;
      }

      .cls-8 {
        fill: #56b476;
      }

      .cls-9 {
        fill: #f0d0c4;
      }

      .cls-10 {
        fill: #007d44;
      }

      .cls-11 {
        fill: #a88157;
      }

      .cls-12 {
        fill: #25303b;
      }

      .cls-13 {
        fill: #47281f;
      }

      .cls-2 {
        stroke: #25303b;
        stroke-miterlimit: 10;
        stroke-width: 1.03px;
      }

      .cls-14 {
        fill: #1d1d1b;
      }

      .cls-15 {
        fill: #f4e8bc;
      }

      .cls-16 {
        fill: #f1d1c4;
      }

      .cls-17 {
        fill: #deedfa;
      }

      .cls-18 {
        fill: #64b5f6;
      }

      .cls-19 {
        fill: #c7ccd0;
      }

      .cls-20 {
        clip-path: url(#clippath-1);
      }

      .cls-21 {
        clip-path: url(#clippath-2);
      }

      .cls-22 {
        fill: #808485;
      }

      .cls-22, .cls-23, .cls-24 {
        fill-rule: evenodd;
      }

      .cls-23 {
        fill: #30373a;
      }

      .cls-25 {
        fill: #fff;
      }

      .cls-26 {
        fill: #27303b;
      }

      .cls-27 {
        fill: #fad0ae;
      }

      .cls-28 {
        fill: #ebcb85;
      }

      .cls-29 {
        fill: #3c4c5c;
      }

      .cls-30 {
        fill: #a85c47;
      }

      .cls-31, .cls-24 {
        fill: #1e1e1b;
      }

      .cls-32 {
        fill: #f5a487;
      }

      .cls-33 {
        fill: #b4674d;
      }

      .cls-34 {
        fill: #d7d7d6;
      }

      .cls-35 {
        fill: #d18462;
      }

      .cls-36 {
        fill: #e9c890;
      }

      .cls-37 {
        fill: #85cff4;
      }

      .cls-38 {
        fill: #f3e7ba;
      }

      .cls-39 {
        clip-path: url(#clippath);
      }

      .cls-40 {
        fill: #2d3842;
      }

      .cls-41 {
        fill: #efa183;
      }

      .cls-42 {
        fill: #ececec;
      }
    </style>
    <clipPath id="clippath">
      <path class="cls-1" d="M22.25,180.21C-8.74,95.27,68.46,36.59,206.43,17.48,344.41-1.64,461.98,12.02,474.22,100.32c4.47,32.25,1.26,71.61-11.35,109.5-1.88,5.66,5.22,32.8,2.91,38.37-3.41,8.22-16.48-5.2-20.84,2.66-27.06,48.75-72.88,88.86-141.81,98.41-137.98,19.12-249.88-84.12-280.88-169.06Z"/>
    </clipPath>
    <clipPath id="clippath-1">
      <path class="cls-1" d="M21.36-344.24c-30.99-84.94,14.15-188.62,184.18-162.74,177.81-43.18,255.55-5.46,267.79,82.85,8.47,61.13-10.66,147.77-69.01,201.64-25.94,23.95-59.62,41.42-102.08,47.3-137.98,19.12-249.88-84.12-280.88-169.06Z"/>
    </clipPath>
    <clipPath id="clippath-2">
      <path class="cls-1" d="M463.94-453.96c7.86-8.87,12.49-19.66,12.49-31.29,0-30.27-31.19-54.8-69.68-54.8-25.83,0-48.36,11.06-60.39,27.49-41.23-4.06-89.59-1.49-140.77,5.6C67.61-487.85-9.59-429.18,21.41-344.24c30.99,84.94,142.9,188.17,280.88,169.06,137.97-19.12,183.33-160.64,171.09-248.94-1.54-11.1-4.74-21.02-9.44-29.84Z"/>
    </clipPath>
  </defs>
  <g class="cls-39">
    <path class="cls-17" d="M22.25,180.21C-8.74,95.27,68.46,36.59,206.43,17.48,344.41-1.64,461.98,12.02,474.22,100.32c12.24,88.31-33.12,229.82-171.09,248.94-137.98,19.12-249.88-84.12-280.88-169.06Z"/>
    <path class="cls-19" d="M267.25,238.24c0,3.66-3,6.66-6.66,6.66H-362.66l-91.7-9.99c-13.03-2.61-17.71-13.01-17.71-16.67V78.09c0-12.52,10.86-22.31,22.31-22.31H244.94c11.49,0,22.31,9.89,22.31,22.31v160.15Z"/>
    <path class="cls-14" d="M261.7,80.93s17.53,1.07,21.4,1.53c3.87.45,8.21,1.34,8.98,7.45.76,6.11,2.16,15.81,2.61,21.16.32,3.81.67,9.81-2.23,10.56-2.37.62-7.83.95-7.83.95l-4.97-32.1-16.76-.99-1.19-8.57Z"/>
    <rect class="cls-31" x="-450.18" y="82.93" width="686.81" height="91.71"/>
    <path class="cls-23" d="M87.64,185.4h-20.05c-23,0-33.32,21.56-33.32,38.12v21.39h86.68v-21.39c0-16.55-10.31-38.12-33.32-38.12Z"/>
    <path class="cls-24" d="M40.82,231.35c0-20.53,16.66-37.19,37.17-37.19,20.52,0,37.18,16.67,37.18,37.19,0,20.53-16.66,37.19-37.18,37.19-20.51,0-37.17-16.66-37.17-37.19h0Z"/>
    <path class="cls-22" d="M54.37,231.35c0-13.05,10.59-23.64,23.62-23.64,13.05,0,23.63,10.59,23.63,23.64,0,13.05-10.58,23.64-23.63,23.64-13.04,0-23.62-10.59-23.62-23.64h0Z"/>
    <rect class="cls-40" x="25.87" y="91.62" width="107.46" height="74.34" rx="3.2" ry="3.2"/>
    <rect class="cls-40" x="-91.36" y="91.62" width="107.46" height="74.34" rx="3.2" ry="3.2"/>
    <path class="cls-25" d="M244.94,55.78H-449.75c-11.45,0-22.31,9.8-22.31,22.31v4.85H267.25v-4.85c0-12.42-10.82-22.31-22.31-22.31Z"/>
    <path class="cls-18" d="M265,68.61h-20.15s-8.64,0-8.64,0H-245.17c-7.88,0-14.33,6.45-14.33,14.33H236.62v89.49c2.15,12.79,13.01,23.46,26.65,23.46,1.44,0,2.75,0,3.97,0v-117.79c0-3.41-.84-6.61-2.25-9.48Z"/>
    <path class="cls-40" d="M267.25,181.25v-103.16c0-12.42-10.82-22.31-22.31-22.31h-.09v104.63c0,10.94,8.47,20.84,19.41,20.84.2,0,1.32,0,3,0Z"/>
    <rect class="cls-40" x="147.87" y="91.62" width="77.07" height="153.28" rx="3.2" ry="3.2"/>
    <g>
      <g>
        <path class="cls-27" d="M166.28,123.03c1.71.52,2.93,1.83,2.73,2.94l-1.19,6.73c-.2,1.11-1.74,1.59-3.45,1.08-1.71-.51-2.93-1.83-2.73-2.94l1.19-6.73c.2-1.11,1.74-1.59,3.44-1.08Z"/>
        <path class="cls-27" d="M166.31,123.31c1.71.52,2.93,1.83,2.73,2.94l-1.19,6.73c-.18,1.05-1.58,1.54-3.17,1.15l.36-2.04c.2-1.11-1.03-2.42-2.73-2.94-.09-.03-.18-.05-.27-.07l.83-4.7c.2-1.11,1.74-1.59,3.44-1.08Z"/>
      </g>
      <ellipse class="cls-26" cx="165.92" cy="170.38" rx="12.71" ry="14.31" transform="translate(-.29 .29) rotate(-.1)"/>
      <path class="cls-29" d="M152.61,167.69l.03-14.6,3.25-23.13,6.12-.89,4.84,5,2.74-4.47,4.11,1.03,1.83,6.67s3.9,28.83,2.89,29.5c-10.72,7.15-25.82.89-25.82.89Z"/>
      <path class="cls-18" d="M159.64,137.78c1.06-2.61.23-6.15-.86-7.15-1.09-1-3.32-.91-4.2-.07-3.71,3.56-12.37,13.37-7.89,23.75,5.63,13.04,7.05,16.47,7.05,16.47l7.16-3.34-5.95-18.22,4.67-11.45Z"/>
      <polygon class="cls-18" points="159.95 129.4 162.08 128.48 166.86 134.08 163.18 133.18 163.63 132.07 159.95 129.4"/>
      <polygon class="cls-18" points="166.86 134.08 168.55 128.93 170.64 129.85 168.64 132.18 169.53 133.3 166.86 134.08"/>
      <rect class="cls-25" x="159.51" y="140.42" width="5.9" height="1.22" transform="translate(324.92 282.06) rotate(-180)"/>
      <g>
        <rect class="cls-14" x="193.34" y="158.95" width="5.94" height="3.26" rx=".78" ry=".78" transform="translate(443.82 215.95) rotate(153.33)"/>
        <rect class="cls-14" x="191.5" y="154.74" width="10.38" height="1.51" rx=".5" ry=".5" transform="translate(344.1 -47.32) rotate(87.68)"/>
        <rect class="cls-14" x="187.42" y="157.68" width="10.38" height="1.46" rx=".48" ry=".48" transform="translate(226.82 405.43) rotate(-137.32)"/>
        <rect class="cls-14" x="142.96" y="153" width="8.81" height="28.43" rx="2.92" ry="2.92" transform="translate(-43.27 51.74) rotate(-17.41)"/>
        <rect class="cls-12" x="150.49" y="160.61" width="7.45" height="33.43" rx="2.46" ry="2.46" transform="translate(-23.11 331.53) rotate(-90)"/>
        <path class="cls-7" d="M196.01,162.45l5.81-4.56c1.36,0,2.45,1.34,2.45,2.99l1.07,55.1c0,1.65-1.1,2.99-2.45,2.99h-10.63c-1.36,0-2.45-1.34-2.45-2.99l3.75-50.54c0-1.65,1.1-2.99,2.45-2.99Z"/>
        <rect class="cls-14" x="180.34" y="152.12" width="24.29" height="2.05" rx=".68" ry=".68" transform="translate(433.24 203.59) rotate(153.33)"/>
      </g>
      <path class="cls-27" d="M195.23,149.91l3.28.15c.26.04.51.13.75.27.62.36,1.97,1.05,2.89.93,1.84-.23,2.7.64,3.05.74.51-2.04-2.16-2.19-2.16-2.19,0,0-.13-.14,1.31-.5,1.49-.38.5-1.69-.24-1.66-.09,0,.05-1.1.05-1.1,0,0-4.19-.52-5.19-.64-.14-.02-.28-.02-.42-.01l-2.71.19-.61,3.82Z"/>
      <path class="cls-27" d="M204.16,146.54l1.09,1.09c.22.22.34.51.34.82v2.38s-.93,0-1.18-2.15l-1.69-.72,1.43-1.43Z"/>
      <path class="cls-18" d="M178.01,134.86c-1.2-2.48-4.09-4.11-5.38-3.91-1.29.2-2.45,1.98-2.36,3.18.4,5.13-1.94,15.18,7.66,18.37,12.05,4.01,19.49-2.06,19.49-2.06l.22-4.77-14.35.09-5.28-10.91Z"/>
      <ellipse class="cls-11" cx="170.17" cy="116" rx="3.15" ry="3.98" transform="translate(-.2 .29) rotate(-.1)"/>
      <ellipse class="cls-11" cx="166.6" cy="115.82" rx="5.74" ry="5.64" transform="translate(-.2 .29) rotate(-.1)"/>
      <path class="cls-27" d="M164.01,113.09l8.09,1.36c.18.93.19,1.97,0,3.04l-1.02,6.09c-1.13,5.21-5.17,4.23-5.17,4.23h0s-.07-.01-.11-.02c-2.61-.44-4.26-3.57-3.69-6.99l.81-4.84c.18-1.07.55-2.04,1.07-2.86Z"/>
      <circle class="cls-11" cx="162.24" cy="117.42" r="2.44"/>
      <ellipse class="cls-11" cx="167.09" cy="114.49" rx="5.45" ry="3.32" transform="translate(-.2 .29) rotate(-.1)"/>
      <path class="cls-11" d="M172.44,118.32c.87-.47,1.36-1.06,1.46-1.77.18-1.3-1.02-2.49-1.08-2.54l-.16.16s1.18,1.16,1.01,2.35c-.09.63-.54,1.17-1.35,1.6l.11.2Z"/>
      <path class="cls-27" d="M162.76,118.03c-.9-.36-1.92.08-2.28.98-.36.9.08,1.92.98,2.28l2.65,1.06,1.21-3.29-2.55-1.02Z"/>
      <rect class="cls-12" x="171.5" y="162.14" width=".22" height="8.49"/>
      <path class="cls-12" d="M154.85,170.4c2.21,0,5.19-.5,6.8-2.87.97-1.42.98-2.83.98-2.88h-.22s-.01,1.4-.95,2.77c-1.23,1.81-3.52,2.76-6.61,2.76v.22Z"/>
      <path class="cls-29" d="M167.81,125.44c.57,0,.96-.09.99-.1.06-.01.1-.08.08-.13-.01-.06-.08-.1-.13-.08-.01,0-1.49.35-2.88-.34-.06-.03-.12,0-.15.05-.03.06,0,.12.05.15.73.37,1.47.46,2.04.46Z"/>
      <path class="cls-29" d="M171.55,119.41s.07-.02.09-.04c.04-.05.03-.12-.02-.16-1.11-.83-2.36-.02-2.37-.01-.05.03-.07.1-.03.15.03.05.1.07.15.03.05-.03,1.14-.73,2.12,0,.02.02.04.02.07.02Z"/>
      <path class="cls-29" d="M165.45,119.32s.04,0,.06-.02c1.05-.74,2.24-.01,2.25,0,.05.03.12.02.15-.04.03-.05.02-.12-.04-.15-.01,0-1.33-.81-2.5.01-.05.04-.06.11-.03.16.02.03.06.05.09.05Z"/>
      <path class="cls-29" d="M167.39,123.85s.01,0,.02,0l1.08-.21c.33-.06.55-.28.52-.53l-.35-3.42c0-.06-.06-.1-.12-.1-.06,0-.11.06-.1.12l.35,3.42c.01.12-.14.25-.34.29l-1.08.21c-.06.01-.1.07-.09.13.01.05.06.09.11.09Z"/>
      <path class="cls-32" d="M162.02,120.72c.06,0,.11-.04.11-.1,0-.06-.04-.12-.1-.12,0,0-.48-.05-.74-.37-.14-.17-.2-.4-.17-.67.02-.22.11-.39.26-.5.32-.24.81-.15.82-.15.06.01.12-.03.13-.09.01-.06-.03-.12-.09-.13-.02,0-.6-.11-.99.19-.2.15-.32.37-.35.66-.03.33.04.61.22.83.32.39.87.45.89.45,0,0,0,0,.01,0Z"/>
      <path class="cls-32" d="M165.01,127.61s1.85.68,3.85-.33l-.3,1.73s-2.38-.12-3.55-1.41Z"/>
      <path class="cls-29" d="M154.85,177.35s.02,0,.03,0c3.5-1.03,6.56-3.63,6.59-3.66.05-.04.05-.11.01-.16-.04-.05-.11-.05-.16-.01-.03.03-3.05,2.59-6.51,3.62-.06.02-.09.08-.08.14.01.05.06.08.11.08Z"/>
      <g>
        <path class="cls-27" d="M159.68,174.12c.02.17.1.51.35,1.21.53,1.45,1.35,3.33,1.57,4.14.22.82-.58,1.11-.9.46-.39-.78-2.29-4.46-2.76-5.24.08-.22,1.74-.56,1.75-.56Z"/>
        <path class="cls-27" d="M156.79,166.11l1.98,2.63c.18.19.4.35.64.47.64.31,1.98,1.03,2.4,1.86.85,1.65,2.06,1.87,2.33,2.1-1.4,1.57-3.02-.54-3.02-.54,0,0-.18-.03.32,1.36.53,1.45,1.35,3.33,1.57,4.14.22.82-.58,1.11-.9.46-.41-.83-1.77-3.23-2.17-3.87-.05-.08-3.37.03-3.47-.03-.3-.94-.87-3.12-.87-3.12-.02-.1-.06-.19-.13-.26l-1.48-2.53,2.81-2.66Z"/>
        <path class="cls-27" d="M157.67,173.58c.02.16.11.5.39,1.19.57,1.43,1.44,3.29,1.68,4.08.24.81-.55,1.12-.9.48-.41-.77-2.41-4.39-2.91-5.16.07-.22,1.73-.6,1.74-.6Z"/>
        <path class="cls-27" d="M156.9,172.83c-.03.12-.06.38-.08.94-.03,1.15.02,2.68-.04,3.3-.06.64-.64.69-.69.15-.05-.64-.66-5.5-.76-6.16.11-.14,1.56,1.76,1.56,1.77Z"/>
      </g>
      <path class="cls-12" d="M170.81,156.88s.08-.02.1-.07l2.1-4.62c.03-.06,0-.12-.06-.15-.06-.03-.12,0-.15.06l-2.1,4.62c-.03.06,0,.12.06.15.01,0,.03.01.05.01Z"/>
      <path class="cls-29" d="M169.19,120.46s.04,0,.06-.02c0,0,.95-.59,1.61-.09.05.04.12.03.16-.02.04-.05.03-.12-.02-.16-.78-.6-1.82.05-1.86.08-.05.03-.07.1-.03.15.02.03.06.05.09.05Z"/>
      <path class="cls-29" d="M167.75,120.47s.04,0,.05-.01c.05-.03.07-.1.04-.15-.09-.16-.33-.31-.64-.4-.28-.08-1.01-.21-1.81.24-.05.03-.07.1-.04.15.03.05.1.07.15.04.73-.41,1.39-.29,1.64-.22.28.08.46.2.5.29.02.04.06.06.1.06Z"/>
      <circle class="cls-29" cx="166.97" cy="120.6" r=".36"/>
      <circle class="cls-29" cx="170.23" cy="120.69" r=".36"/>
      <path class="cls-11" d="M164.86,117.53s-.12,3.11-1.69,3.77c0,0,.07-2.88-1.79-3.24l1.71-1.36,1.77.82Z"/>
      <path class="cls-11" d="M171.64,114.71s-.48,2.94.62,3.98l.84-1.86-.27-2.33-1.19.22Z"/>
      <polygon class="cls-29" points="177.71 154.88 176.95 147.43 175.54 137.3 173.71 130.63 169.79 131.67 169.37 146.25 177.71 154.88"/>
    </g>
    <path class="cls-19" d="M221.23,232c1.7,0,3.1-1.44,3.1-3.21v-64.86c0-1.76-1.39-3.21-3.1-3.21h-69.83c-1.7,0-3.1,1.44-3.1,3.21v64.86c0,1.76,1.39,3.21,3.1,3.21h69.83Z"/>
    <g>
      <rect class="cls-14" x="155.55" y="91.58" width="2.07" height="140.43"/>
      <rect class="cls-3" x="148.92" y="153.66" width="14.73" height="22.76" rx="1.52" ry="1.52"/>
      <rect class="cls-25" x="151.72" y="156.82" width="9.11" height="3.01"/>
      <circle class="cls-18" cx="156.2" cy="167.02" r="5.89"/>
      <path class="cls-25" d="M156.29,171.93c-2.71,0-4.92-2.21-4.92-4.92,0-2.71,2.21-4.92,4.92-4.92s4.92,2.21,4.92,4.92-2.21,4.92-4.92,4.92ZM156.29,162.37c-2.56,0-4.65,2.08-4.65,4.65s2.08,4.65,4.65,4.65,4.65-2.08,4.65-4.65-2.08-4.65-4.65-4.65Z"/>
      <path class="cls-25" d="M156.31,170.47c-1.91,0-3.46-1.55-3.46-3.46,0-1.91,1.55-3.46,3.46-3.46,1.91,0,3.46,1.55,3.46,3.46s-1.55,3.46-3.46,3.46ZM156.31,163.83c-1.76,0-3.18,1.43-3.18,3.18,0,1.76,1.43,3.18,3.18,3.18,1.76,0,3.18-1.43,3.18-3.18,0-1.76-1.43-3.18-3.18-3.18Z"/>
      <path class="cls-25" d="M156.29,169.1c-1.15,0-2.09-.94-2.09-2.09,0-1.15.94-2.09,2.09-2.09,1.15,0,2.09.94,2.09,2.09,0,1.15-.94,2.09-2.09,2.09ZM156.29,165.2c-1,0-1.81.81-1.81,1.81s.81,1.81,1.81,1.81,1.81-.81,1.81-1.81-.81-1.81-1.81-1.81Z"/>
    </g>
    <rect class="cls-31" x="136.18" y="83.87" width="12.13" height="160.94"/>
    <rect class="cls-31" x="224.94" y="82.93" width="11.69" height="161.97"/>
    <rect class="cls-31" x="136.85" y="231.92" width="98.81" height="12.89" transform="translate(372.52 476.72) rotate(-180)"/>
    <g>
      <path class="cls-30" d="M443.55,167.32c-2.47-.93-4.79-3.22-6.9-6.82-1.56-2.66-2.39-5.01-2.42-5.11l.68-.24c.03.09,3.36,9.42,8.9,11.5l-.25.68Z"/>
      <path class="cls-30" d="M416.25,136.12s19.29-4.41,19.09,13.13c-.2,17.53,8.06,19.2,8.06,19.2,0,0-19.29,3.51-24.22-10.83-4.93-14.34-2.93-21.5-2.93-21.5Z"/>
      <path class="cls-36" d="M386.65,166.58h-13.77c-1.76,0-3.23,1.4-3.36,3.22l-5.27,73.99c-.17,2.35,1.63,4.35,3.92,4.35h21.25s-2.77-81.56-2.77-81.56Z"/>
      <path class="cls-36" d="M433.11,165.82l19.4-.38c1.76,0,3.23,1.4,3.36,3.22l5.27,73.99c.17,2.35-1.63,4.35-3.92,4.35h-21.25l-2.86-81.18Z"/>
      <ellipse class="cls-30" cx="409.62" cy="123.99" rx="19.45" ry="22.74" transform="translate(96.08 415.28) rotate(-59.73)"/>
      <ellipse class="cls-30" cx="392.53" cy="125.2" rx="12.26" ry="10.2" transform="translate(226.94 502.47) rotate(-83.99)"/>
      <path class="cls-16" d="M404.85,142.94c-4.59.8-8.13,3.93-7.93,6.98l1.23,18.5c.2,3.06,4.08,4.88,8.67,4.07,4.58-.8,8.13-3.93,7.92-6.98l-1.22-18.51c-.2-3.05-4.08-4.88-8.66-4.07Z"/>
      <path class="cls-16" d="M406.55,155.46c8.45-1.36,14.14-9.57,12.73-18.33l-2-12.37c-.44-2.74-1.52-5.21-3.07-7.27l-26.18,4.23c-.32,1.13.36,5.99.77,9.9.58,5.53.94,11.1,1.65,14.94,2.12,11.56,15.76,8.96,15.76,8.96"/>
      <path class="cls-16" d="M421.65,132.67c2.77-.45,5.37,1.44,5.81,4.2.45,2.76-1.43,5.36-4.2,5.81l-8.14,1.31-1.31-10.05,7.84-1.27Z"/>
      <path class="cls-30" d="M413.2,127.71s.42,9.8,4.18,11.35c0,0,.84-5.67,5.43-9.8l-9.6-1.55Z"/>
      <path class="cls-29" d="M400.07,147.05c-1.2,0-2.68-.29-4.33-1.22-.17-.1-.24-.32-.14-.49.1-.17.32-.24.49-.14,4.58,2.56,7.58,0,7.71-.11.15-.13.38-.12.51.03.13.15.12.38-.03.51-.04.03-.89.78-2.38,1.18-.5.13-1.12.24-1.83.24Z"/>
      <path class="cls-29" d="M408.05,135.69c-.11,0-.22-.05-.29-.15-.8-1.07-1.71-1.68-2.72-1.79-1.6-.18-2.94.93-2.95.94-.15.13-.38.11-.51-.04-.13-.15-.11-.38.04-.51.06-.05,1.59-1.33,3.5-1.11,1.22.14,2.3.84,3.22,2.08.12.16.09.39-.07.51-.06.05-.14.07-.22.07Z"/>
      <circle class="cls-29" cx="404.23" cy="135.92" r="1.46"/>
      <path class="cls-29" d="M397.2,135.28c-.1,0-.2-.04-.27-.12-.95-1.06-1.96-1.6-3.01-1.62-.02,0-.03,0-.05,0-1.51,0-2.6,1.12-2.62,1.13-.14.14-.37.15-.51.01-.14-.14-.15-.37-.01-.51.05-.06,1.35-1.38,3.19-1.35,1.25.02,2.44.64,3.54,1.86.13.15.12.38-.03.51-.07.06-.16.09-.24.09Z"/>
      <circle class="cls-29" cx="393.37" cy="135.92" r="1.46"/>
      <path class="cls-32" d="M422.9,141.08l-.19-.7s1.45-.41,2.09-1.56c.34-.62.4-1.35.16-2.17-.19-.68-.56-1.16-1.08-1.42-1.11-.56-2.61-.02-2.63,0l-.25-.68c.07-.03,1.81-.66,3.2.04.71.36,1.2.99,1.45,1.87.29,1.02.21,1.94-.23,2.73-.79,1.41-2.46,1.87-2.53,1.89Z"/>
      <path class="cls-29" d="M396.08,132.2c-.07,0-.13-.02-.19-.05-.03-.02-3.18-1.94-5.45-.42-.17.11-.39.07-.5-.1-.11-.17-.07-.39.1-.5,2.67-1.78,6.09.32,6.24.41.17.11.22.33.11.5-.07.11-.19.17-.31.17Z"/>
      <path class="cls-29" d="M401.42,132.35c-.06,0-.11-.01-.17-.04-.18-.09-.25-.31-.15-.49.28-.54,1.04-1.02,1.99-1.25,1.61-.4,3.39-.05,4.89.98.16.11.21.34.09.5-.11.16-.34.21-.5.09-1.88-1.29-3.64-1.04-4.31-.87-.84.21-1.38.61-1.53.89-.06.12-.19.19-.32.19Z"/>
      <ellipse class="cls-30" cx="411.63" cy="118.48" rx="14.39" ry="12.59" transform="translate(-15.52 86.6) rotate(-11.79)"/>
      <ellipse class="cls-30" cx="391.06" cy="121.7" rx="7.69" ry="6.92" transform="translate(147.72 451.13) rotate(-70.84)"/>
      <g>
        <path class="cls-16" d="M374.21,282.56c-.1.33-.21,1.03-.25,2.57-.09,3.17.07,7.4-.13,9.1-.21,1.74-2.06,1.63-2.2.14-.16-1.79-1.07-10.29-1.4-12.16.34-.35,3.96.35,3.98.36Z"/>
        <path class="cls-16" d="M373.36,258.61l3.28,13.03c.21.5.52.98.93,1.4,1.05,1.11,3.17,3.56,3.37,5.47.4,3.81,2.67,5.21,3.04,5.86-4.08,1.83-5.68-3.49-5.68-3.49,0,0-.35-.21-.43,2.84-.09,3.17.07,7.4-.13,9.1-.21,1.74-2.06,1.63-2.2.14-.17-1.9-1.01-7.55-1.3-9.07-.03-.18-6.84-2.69-6.99-2.89.15-2.02.73-6.61.73-6.61.04-.2-.26-.8-.34-.99l.38-7.66,5.34-7.13Z"/>
        <path class="cls-16" d="M370.58,279.89c-.09.33-.18,1.04-.17,2.57,0,3.17.29,7.39.14,9.09-.16,1.74-2.01,1.67-2.19.18-.22-1.78-1.37-10.26-1.76-12.12.33-.36,3.97.28,3.99.29Z"/>
        <path class="cls-16" d="M369.62,277.84c-.16.21-.44.67-.91,1.72-.97,2.16-2.09,5.08-2.71,6.21-.64,1.16-1.85.77-1.51-.28.41-1.25,2.89-10.85,3.21-12.19.33-.19,1.91,4.53,1.92,4.54Z"/>
      </g>
      <path class="cls-16" d="M378.98,270.53l-11.34,2.88c.06-.6.28-52.61,1.04-60.22.54-5.44.62-11.94,1.68-37.33l15.58,1.94c-.27,6.53-.92,29.45-1.7,37.29-.77,7.69-4.99,52.99-5.25,55.44Z"/>
      <path class="cls-16" d="M404.39,267.64s-10.36,49.47-8.55,63.53c2.28,17.75,3.99,31.37,1.71,48.58l-13.68.93s-7.05-31.91-7.98-47.18c-1.14-18.68-3.42-71.47-3.42-71.47l31.92,5.61Z"/>
      <path class="cls-16" d="M439.51,263.65s-10.03,53.87-8.28,69.18c2.21,19.33,3.86,34.16,1.66,52.9l-11.65.26s-8.85-36.29-10.72-52.84c-2.3-20.29-4.98-70.84-4.98-70.84l33.98,1.35Z"/>
      <path class="cls-18" d="M441.15,246.99c6.13,12.64-.77,47.48-.77,47.48h-34.46l-3.05-32.17s32.49-27.25,38.28-15.31Z"/>
      <polygon class="cls-18" points="374.34 233.54 369.55 293.8 402.91 293.8 405.88 260.16 374.34 233.54"/>
      <path class="cls-16" d="M450.48,191.47s9.32,44.14,0,48.07-16.42-44.5-16.42-44.5l16.42-3.57Z"/>
      <ellipse class="cls-18" cx="406.02" cy="239.75" rx="33.88" ry="32.54" transform="translate(145.9 633.04) rotate(-87.08)"/>
      <path class="cls-29" d="M381.9,184.55l-6.17-15.37,19.95-6.41,30.79.44,11.33,2.99s2.17,65.03,5.28,76.57c.04.13-68.72.42-68.72.42,0,0,5.71-49.78,7.56-58.65Z"/>
      <path class="cls-16" d="M401.69,160.06l-8.15,2.31s-1.15,5.74,11.87,5.74c18.04,0,14.93-5.74,14.93-5.74l-8.58-3.01-10.08.7Z"/>
      <path class="cls-29" d="M426.11,206.28c10.78-.06,18.31-1.3,28.88-5.63-2.6-25.83-9.8-35.52-21.97-34.94-10.32.49-16.07,9.22-13.9,18.22,1.01,4.17,5.27,13.1,7,22.35Z"/>
      <path class="cls-32" d="M407.16,139.76c.05,1.02.93,1.82,1.96,1.76,1.04-.06,1.83-.94,1.78-1.96-.05-1.03-.94-1.84-1.98-1.79-1.02.05-1.81.95-1.76,1.98Z"/>
      <path class="cls-29" d="M392.58,206.16c-10.78-.06-18.31-1.3-28.88-5.63,2.6-25.83,9.8-35.52,21.97-34.94,10.32.49,16.07,9.22,13.9,18.22-1.01,4.17-5.27,13.1-7,22.35Z"/>
      <path class="cls-12" d="M420.36,161.78l-24.02,50.75c4.33,15.71,6.51,37.14,6.51,37.14,16.97,8.81,42.26-1.22,42.26-1.22l-4.35-43.59s-6.32-20.11-3.09-38.83l-17.32-4.25Z"/>
      <path class="cls-35" d="M433.11,164.28l-10.48-2.3s-20.15,56.29,16.99,70.08c0,0-4-6.23-4.59-7.66-2.09-5.05-13.22-21.84-1.91-60.12Z"/>
      <path class="cls-16" d="M432,199.53s27.15,31.97,18.92,39.62c-10.65,9.89-26-25.83-29.1-37.34"/>
      <path class="cls-12" d="M394.06,161.21s4.61,35.58,6,42.89c1.53,8.04.56,12.83-.38,16.08-4.21,14.55-2.82,29.03-3.06,29.1-16.08,4.98-23.62-2.67-23.62-2.67,0,0-.77-6.13,3.06-27.19,2.86-15.72,6.07-42.12,3.07-53.61l14.93-4.59Z"/>
      <path class="cls-35" d="M380.91,165.16l8.58-2.98s11.96,54.04-14.58,62.21l.76-4.21c2.1-4.93,9.54-19,5.24-55.03Z"/>
      <g>
        <path class="cls-16" d="M421.75,187.47c-.43-.14-1.28-.56-2.99-1.63-.57-.36-1.17-.75-1.78-1.15-.4-.26-.89-.36-1.35-.24-1.17.3-1.5,1.2-1.65,2.06-.05.32.08.65.33.85,2.17,1.81,4.16,3.48,4.92,4.19.64-.07,2.52-4.06,2.52-4.08Z"/>
        <path class="cls-16" d="M430.43,196.73c-.17-.67-.21-1.38-.13-2.09.22-1.86.51-5.84-.75-8.01-2.51-4.32-1.26-7.27-1.39-8.21-5.58.65-3.14,7.36-3.14,7.36,0,0-.2.45-2.62-2.75-.77-1.02-1.6-2.17-2.42-3.32-1.19-.91-2.65-.17-3.18,1.1-.14.34-.1.73.07,1.05.75,1.43,1.39,2.67,1.7,3.31.1.21-4.94,7.25-4.94,7.57,1.7,2.06,5.81,6.59,5.81,6.59.19.19.33.42.41.68l4.45,8.31,9.2-6.52-3.07-5.08Z"/>
        <path class="cls-16" d="M422.94,192.89c-.43-.12-1.3-.49-3.05-1.49-1.71-.97-2.6-1.92-4.39-3-.19-.11-1.15-.77-1.91-.38-1.08.54-1.4,1.01-1.31,2.23.02.31.18.59.42.77,3.16,2.36,6.82,5.13,7.95,6.09.63-.1,2.3-4.2,2.3-4.22Z"/>
        <path class="cls-16" d="M420.47,195.51c-.28-.09-.82-.33-1.92-.95-2.25-1.29-3.59-3.05-4.97-2.71-1.53.38-1.36,1.98-.38,2.68,1.17.83,4.98,3.64,6.13,4.59.42-.02,1.14-3.6,1.14-3.62Z"/>
      </g>
      <path class="cls-32" d="M397.25,154.82s4.24,1.89,11.82,0c0,0-5.73,2.79-11.68,2.07l-.14-2.07Z"/>
      <polygon class="cls-37" points="404.77 289.88 441.67 289.88 440.81 295.02 405.16 295.02 404.77 289.88"/>
      <polygon class="cls-37" points="369.16 287.96 403.62 289.88 403.24 294.85 368.78 294.47 369.16 287.96"/>
      <path class="cls-37" d="M405.54,290.8c-.18,0-.34-.14-.36-.33l-1.13-11.84c-4.17-2.02-6.77-7.51-6.88-7.74-.08-.18,0-.4.17-.48.18-.08.4,0,.48.17.03.06,2.68,5.65,6.71,7.48l.19.09,1.17,12.26c.02.2-.13.37-.33.39-.01,0-.02,0-.03,0Z"/>
      <path class="cls-37" d="M398.26,257.64c-.2,0-.36-.16-.36-.36v-12.93c0-.2.16-.36.36-.36s.36.16.36.36v12.93c0,.2-.16.36-.36.36Z"/>
      <path class="cls-37" d="M438.74,268.03c-13.64,0-16.67-11.5-16.7-11.62-.05-.19.07-.39.26-.44.19-.05.39.07.44.26.03.11,2.94,11.07,16,11.07.2,0,.36.16.36.36s-.16.36-.36.36Z"/>
      <path class="cls-37" d="M374.36,265.86c-.2,0-.36-.16-.36-.36s.16-.36.36-.36c7.33,0,8.98-10.92,8.99-11.03.03-.2.21-.33.41-.31.2.03.33.21.31.41-.02.12-1.76,11.65-9.71,11.65Z"/>
      <path class="cls-32" d="M421.24,343.46c-3.86,0-6.73-8.31-6.85-8.67-.06-.19.04-.39.23-.46.19-.06.39.04.46.23.77,2.27,3.39,8.18,6.17,8.18.2,0,.36.16.36.36s-.16.36-.36.36Z"/>
      <path class="cls-32" d="M383.36,342.72s-.07,0-.1-.01c-3.7-1.09-4.1-9.88-4.11-10.26,0-.2.15-.37.35-.38.19,0,.37.15.38.35.1,2.4.93,8.8,3.6,9.59.19.06.3.26.24.45-.05.16-.19.26-.35.26Z"/>
      <circle class="cls-29" cx="399.41" cy="212.91" r="1.91"/>
      <circle class="cls-29" cx="404.77" cy="203.72" r="1.91"/>
      <circle class="cls-29" cx="404" cy="222.87" r="1.91"/>
      <circle class="cls-29" cx="406.3" cy="233.59" r="1.91"/>
      <circle class="cls-29" cx="408.6" cy="243.93" r="1.91"/>
      <circle class="cls-29" cx="409.75" cy="195.3" r="1.91"/>
      <path class="cls-30" d="M410.24,133c-1.8,0-3.47-.42-4.99-1.25-5.36-2.95-6.94-9.95-7.01-10.25l.71-.15c.02.07,1.59,6.99,6.66,9.77,2.68,1.47,5.87,1.54,9.49.22l.25.68c-1.8.66-3.5.98-5.1.98Z"/>
      <path class="cls-30" d="M385.84,134.15c-2.92-1.75-4.55-3.83-4.84-6.19-.45-3.56,2.31-6.39,2.43-6.51l.51.51s-2.63,2.71-2.22,5.92c.27,2.12,1.78,4.03,4.5,5.66l-.37.62Z"/>
      <path class="cls-30" d="M421.98,161.47c-7.4-2.7-4.88-11.52-4.85-11.61l.69.21s-.61,2.12-.36,4.48c.34,3.11,1.94,5.21,4.76,6.24l-.25.68Z"/>
      <path class="cls-32" d="M390.19,140.3c.05,1.02.93,1.82,1.96,1.76s1.83-.94,1.78-1.96c-.05-1.03-.94-1.84-1.98-1.79s-1.81.95-1.76,1.98Z"/>
      <path class="cls-29" d="M397.56,141.76c-.78,0-1.43-.22-1.87-.64-.39-.37-.61-.88-.61-1.44,0-.93.66-1.89,1.76-1.89.06,0,.11-.01.16-.08.43-.54.17-2.76-.15-4.16-.04-.19.08-.39.27-.43.19-.04.39.08.43.27.14.62.82,3.76.01,4.77-.18.23-.44.35-.73.35-.67,0-1.04.6-1.04,1.17,0,.35.14.68.39.91.31.29.78.44,1.37.44.2,0,.36.16.36.36s-.16.36-.36.36Z"/>
    </g>
    <g>
      <path class="cls-12" d="M335.74,130.78s34.07,43.11,34.3,70.11c.23,27.01-43.85,28.15-45.47,17.28-1.62-10.87,11.17-87.4,11.17-87.4Z"/>
      <g>
        <path class="cls-33" d="M278.31,247.66c-.12.33-.25,1.03-.3,2.57-.1,3.17.08,7.4-.16,9.1-.25,1.74-2.44,1.63-2.61.14-.19-1.79-1.27-10.29-1.66-12.16.4-.35,4.7.35,4.71.36Z"/>
        <path class="cls-33" d="M277.3,223.72l3.89,13.03c.25.5.62.98,1.1,1.4,1.25,1.11,3.76,3.56,3.99,5.47.47,3.81,3.16,5.21,3.6,5.86-4.83,1.83-6.73-3.49-6.73-3.49,0,0-.41-.21-.51,2.84-.1,3.17.08,7.4-.16,9.1-.25,1.74-2.44,1.63-2.61.14-.2-1.9-1.2-7.55-1.54-9.07-.04-.18-8.11-2.69-8.29-2.89.18-2.02.86-6.61.86-6.61.04-.2-.31-.8-.4-.99l.45-7.66,6.33-7.13Z"/>
        <path class="cls-33" d="M274.01,245c-.11.33-.21,1.04-.21,2.57,0,3.17.34,7.39.16,9.09-.19,1.74-2.39,1.67-2.6.18-.26-1.78-1.63-10.26-2.08-12.12.39-.36,4.71.28,4.73.29Z"/>
        <path class="cls-33" d="M272.87,242.95c-.19.21-.52.67-1.07,1.72-1.15,2.16-2.48,5.08-3.22,6.21-.76,1.16-2.19.77-1.79-.28.48-1.25,3.42-10.85,3.8-12.19.39-.19,2.27,4.53,2.28,4.54Z"/>
      </g>
      <path class="cls-33" d="M281.52,237.29l-11,1.22c.08-.6,1.53-49.95,2.44-57.57.64-5.44,1.42.57,2.67-24.82l16.58-13.22c-.32,6.53-1.09,29.45-2.02,37.29-.91,7.69-8.36,54.65-8.67,57.1Z"/>
      <path class="cls-33" d="M289.49,195.24s-.81,3.46-1.11,8.14c-.3,4.73-.08,10.7,2.02,15.56h56.45s-2.25-3.61-3.06-18.82l-54.3-4.88Z"/>
      <circle class="cls-13" cx="307.05" cy="114.12" r="9.39"/>
      <circle class="cls-13" cx="320.24" cy="112.5" r="11.02"/>
      <circle class="cls-13" cx="341.37" cy="100.04" r="9.39"/>
      <circle class="cls-13" cx="297.12" cy="108.16" r="9.57"/>
      <circle class="cls-13" cx="289.36" cy="100.4" r="9.39"/>
      <circle class="cls-13" cx="333.42" cy="108.34" r="9.39"/>
      <circle class="cls-13" cx="335.05" cy="91.91" r="11.02"/>
      <ellipse class="cls-13" cx="317.72" cy="89.09" rx="19.45" ry="22.74" transform="translate(80.64 318.61) rotate(-59.73)"/>
      <ellipse class="cls-13" cx="299.2" cy="88.14" rx="14.25" ry="11.86" transform="translate(180.22 376.47) rotate(-83.99)"/>
      <path class="cls-33" d="M312.96,108.04c-4.59.8-8.13,3.93-7.93,6.98l1.23,18.5c.2,3.06,4.08,4.88,8.67,4.07,4.58-.8,8.13-3.93,7.92-6.98l-1.22-18.51c-.2-3.05-4.08-4.88-8.66-4.07Z"/>
      <path class="cls-33" d="M314.66,120.56c8.45-1.36,14.14-9.57,12.73-18.33l-2-12.37c-.44-2.74-1.52-5.21-3.07-7.27l-26.18,4.23c-.32,1.13.36,5.99.77,9.9.58,5.53.94,11.1,1.65,14.94,2.12,11.56,15.76,8.96,15.76,8.96"/>
      <path class="cls-33" d="M329.76,97.77c2.77-.45,5.37,1.44,5.81,4.2.45,2.76-1.43,5.36-4.2,5.81l-8.14,1.31-1.31-10.05,7.84-1.27Z"/>
      <path class="cls-13" d="M321.31,92.81s.42,9.8,4.18,11.35c0,0,.84-5.67,5.43-9.8l-9.6-1.55Z"/>
      <path class="cls-29" d="M308.18,112.15c-1.2,0-2.68-.29-4.33-1.22-.17-.1-.24-.32-.14-.49.1-.17.32-.24.49-.14,4.58,2.56,7.58,0,7.71-.11.15-.13.38-.12.51.03.13.15.12.38-.03.51-.04.03-.89.78-2.38,1.18-.5.13-1.12.24-1.83.24Z"/>
      <path class="cls-29" d="M316.16,100.79c-.11,0-.22-.05-.29-.15-.8-1.07-1.71-1.68-2.72-1.79-1.6-.18-2.94.93-2.95.94-.15.13-.38.11-.51-.04-.13-.15-.11-.38.04-.51.06-.05,1.58-1.33,3.5-1.11,1.22.14,2.3.84,3.22,2.08.12.16.09.39-.07.51-.06.05-.14.07-.22.07Z"/>
      <circle class="cls-29" cx="312.33" cy="101.03" r="1.46"/>
      <path class="cls-29" d="M305.31,100.38c-.1,0-.2-.04-.27-.12-.95-1.06-1.96-1.6-3.01-1.62-1.54-.03-2.65,1.12-2.67,1.13-.14.14-.37.15-.51.01-.14-.14-.15-.37-.01-.51.05-.06,1.31-1.35,3.14-1.35.02,0,.04,0,.06,0,1.25.02,2.44.64,3.54,1.86.13.15.12.38-.03.51-.07.06-.16.09-.24.09Z"/>
      <circle class="cls-29" cx="301.48" cy="101.03" r="1.46"/>
      <path class="cls-4" d="M330.92,106.19c-.16,0-.3-.11-.35-.27-.05-.19.06-.39.25-.44.01,0,1.45-.41,2.09-1.56.34-.62.4-1.35.16-2.17-.19-.68-.56-1.16-1.08-1.42-1.11-.56-2.61-.01-2.63,0-.19.07-.39-.03-.46-.21-.07-.19.02-.39.21-.46.07-.03,1.81-.66,3.2.04.71.36,1.2.99,1.45,1.87.29,1.02.21,1.94-.23,2.73-.79,1.41-2.46,1.87-2.53,1.89-.03,0-.06.01-.1.01Z"/>
      <path class="cls-29" d="M304.19,97.31c-.07,0-.13-.02-.19-.05-.03-.02-3.18-1.94-5.45-.42-.17.11-.39.07-.5-.1-.11-.17-.07-.39.1-.5,2.67-1.78,6.09.32,6.24.41.17.11.22.33.11.5-.07.11-.19.17-.31.17Z"/>
      <path class="cls-29" d="M309.52,97.45c-.06,0-.11-.01-.17-.04-.18-.09-.25-.31-.15-.49.28-.54,1.04-1.02,1.99-1.25,1.61-.4,3.39-.05,4.89.98.16.11.21.34.09.5-.11.16-.34.21-.5.09-1.88-1.29-3.64-1.04-4.31-.87-.84.21-1.38.61-1.53.89-.06.12-.19.19-.32.19Z"/>
      <ellipse class="cls-13" cx="319.73" cy="83.58" rx="14.39" ry="12.59" transform="translate(-10.33 67.09) rotate(-11.79)"/>
      <ellipse class="cls-13" cx="299.16" cy="86.8" rx="7.69" ry="6.92" transform="translate(118.96 340.89) rotate(-70.84)"/>
      <path class="cls-33" d="M311.03,293.64s-7.44,52.15-5.64,66.21c2.28,17.75,3.99,31.37,1.71,48.58l-13.68.93s-7.05-31.91-7.98-47.18c-1.14-18.68,2.83-76.13,2.83-76.13l22.76,7.59Z"/>
      <path class="cls-33" d="M349.07,285.83s-10.03,53.87-8.28,69.18c2.21,19.33,1.35,36.92-.86,55.66l-15.17-2.53s-2.81-36.27-4.69-52.82c-2.3-20.29-4.98-70.84-4.98-70.84l33.98,1.35Z"/>
      <path class="cls-18" d="M347.51,216.7c6.13,12.64,13,168.68,13,168.68-24.92,3.61-38.29,0-38.29,0l-11.25-147.14s30.75-33.48,36.54-21.54Z"/>
      <path class="cls-18" d="M287.91,210.92l-12.28,174.46c14.09,5.78,41.9,0,41.9,0l-4.7-144.48-24.92-29.98Z"/>
      <path class="cls-33" d="M358.58,156.57s9.32,44.14,0,48.07c-9.32,3.94-16.42-44.5-16.42-44.5l16.42-3.57Z"/>
      <path class="cls-8" d="M290.05,148.81l-2.86-16.99,13.73-4.33,27.09-.36,18.78,4.33,4.33,70.43c-25.28,11.56-67.54,1.44-67.54,1.44,0,0,4.63-45.53,6.48-54.52Z"/>
      <path class="cls-33" d="M307.78,124.96l-6.86,2.53s-.4,6.27,12.61,5.72c15.92-.67,14.48-6.08,14.48-6.08l-8.12-2.67-12.1.5Z"/>
      <path class="cls-8" d="M334.22,171.38c10.78-.06,18.31-1.3,28.88-5.63-2.6-25.83-9.8-35.52-21.97-34.94-10.32.49-16.07,9.22-13.9,18.22,1.01,4.17,5.27,13.1,7,22.35Z"/>
      <path class="cls-4" d="M315.27,104.87c.05,1.02.93,1.82,1.96,1.76,1.04-.06,1.83-.94,1.78-1.96s-.94-1.84-1.98-1.79-1.81.95-1.76,1.98Z"/>
      <path class="cls-8" d="M300.69,171.26c-10.78-.06-18.31-1.3-28.88-5.63,2.6-25.83,9.8-35.52,21.97-34.94,10.32.49,16.07,9.22,13.9,18.22-1.01,4.17-5.27,13.1-7,22.35Z"/>
      <path class="cls-12" d="M341.22,129.38l-10.48-2.3s-20.15,56.29,16.99,70.08c0,0-4-6.23-4.59-7.66-2.09-5.05-13.22-21.84-1.91-60.12Z"/>
      <path class="cls-33" d="M340.11,164.63s27.15,31.97,18.92,39.62c-10.65,9.89-26-25.83-29.1-37.34"/>
      <g>
        <path class="cls-33" d="M329.86,152.57c-.43-.14-1.28-.56-2.99-1.63-.57-.36-1.17-.75-1.78-1.15-.4-.26-.89-.36-1.35-.24-1.17.3-1.5,1.2-1.65,2.06-.05.32.08.65.33.85,2.17,1.81,4.16,3.48,4.92,4.19.64-.07,2.52-4.06,2.52-4.08Z"/>
        <path class="cls-33" d="M338.54,161.83c-.17-.67-.21-1.38-.13-2.09.22-1.86.51-5.84-.75-8.01-2.51-4.32-1.26-7.27-1.39-8.21-5.58.65-3.14,7.36-3.14,7.36,0,0-.2.45-2.62-2.75-.77-1.02-1.6-2.17-2.42-3.32-1.19-.91-2.65-.17-3.18,1.1-.14.34-.1.73.07,1.05.75,1.43,1.39,2.67,1.7,3.31.1.21-4.94,7.25-4.94,7.57,1.7,2.06,5.81,6.59,5.81,6.59.19.19.33.42.41.68l4.45,8.31,9.2-6.52-3.07-5.08Z"/>
        <path class="cls-33" d="M331.05,157.99c-.43-.12-1.3-.49-3.05-1.49-1.71-.97-2.6-1.92-4.39-3-.19-.11-1.15-.77-1.91-.38-1.08.54-1.4,1.01-1.31,2.23.02.31.18.59.42.77,3.16,2.36,6.82,5.13,7.95,6.09.63-.1,2.3-4.2,2.3-4.22Z"/>
        <path class="cls-33" d="M328.58,160.61c-.28-.09-.82-.33-1.92-.95-2.25-1.29-3.59-3.05-4.97-2.71-1.53.38-1.36,1.98-.38,2.68,1.17.83,4.98,3.64,6.13,4.59.42-.02,1.14-3.6,1.14-3.62Z"/>
      </g>
      <path class="cls-4" d="M305.35,119.92s4.24,1.89,11.82,0c0,0-5.62,4.67-11.57,3.95l-.25-3.95Z"/>
      <path class="cls-37" d="M306.36,241.16c-.2,0-.36-.16-.36-.36v-12.93c0-.2.16-.36.36-.36s.36.16.36.36v12.93c0,.2-.16.36-.36.36Z"/>
      <path class="cls-4" d="M298.29,105.4c.05,1.02.93,1.82,1.96,1.76s1.83-.94,1.78-1.96c-.05-1.03-.94-1.84-1.98-1.79-1.02.05-1.81.95-1.76,1.98Z"/>
      <path class="cls-29" d="M305.67,106.87c-.78,0-1.43-.22-1.87-.64-.39-.37-.61-.88-.61-1.44,0-.93.66-1.89,1.76-1.89.06,0,.11-.01.16-.08.43-.54.17-2.76-.15-4.16-.04-.19.08-.39.27-.43.19-.04.39.08.43.27.14.62.82,3.76.01,4.77-.18.23-.44.35-.73.35-.67,0-1.04.6-1.04,1.17,0,.35.14.68.39.91.31.29.78.44,1.37.44.2,0,.36.16.36.36s-.16.36-.36.36Z"/>
      <path class="cls-18" d="M287.91,210.92s32.84,5.41,56.67-1.63c0,0,7.99,7.77,5.46,26.55l-41.18,11.56-20.95-36.48Z"/>
      <path class="cls-37" d="M322.22,385.74c-.19,0-.35-.14-.36-.33l-10.44-138.06c-4.17-2.03-6.77-7.51-6.88-7.74-.08-.18,0-.4.17-.48.18-.08.4,0,.48.17.03.06,2.68,5.65,6.71,7.48l.19.09.02.21,10.45,138.27c.02.2-.13.37-.33.39,0,0-.02,0-.03,0Z"/>
      <path class="cls-37" d="M334.93,229.88c-13.64,0-16.67-11.5-16.7-11.62-.05-.19.07-.39.26-.44.19-.05.39.07.44.26.03.11,2.94,11.07,16,11.07.2,0,.36.16.36.36s-.16.36-.36.36Z"/>
      <path class="cls-37" d="M288.27,228.62c-.2,0-.36-.16-.36-.36s.16-.36.36-.36c7.29,0,7.52-10.7,7.52-10.81,0-.2.16-.36.36-.36,0,0,0,0,0,0,.2,0,.36.17.36.37,0,.12-.25,11.52-8.24,11.52Z"/>
      <path class="cls-10" d="M283.58,203.7s-.03,0-.04,0c-.2-.02-.34-.2-.32-.4l3.58-33.04c-3.57-11.69,1-17.2,1.2-17.43.13-.15.36-.17.51-.04.15.13.17.36.04.51-.05.06-4.51,5.5-1.04,16.81l.02.07v.07s-3.6,33.11-3.6,33.11c-.02.19-.18.32-.36.32Z"/>
      <path class="cls-10" d="M318.5,173.86c-8.63,0-9.6-5.12-9.64-5.36-.03-.2.1-.38.3-.42.2-.03.38.1.42.3.04.25,1.21,6.08,12.6,4.49.2-.03.38.11.41.31.03.2-.11.38-.31.41-1.4.2-2.65.28-3.77.28Z"/>
    </g>
  </g>
  <g>
    <path class="cls-41" d="M227.82,193.77s-7.28,17.19-11.38,16.32c-4.1-.87,4.96-18.99,4.96-18.99l6.42,2.67Z"/>
    <ellipse class="cls-13" cx="236.25" cy="166.52" rx="8.31" ry="9.03" transform="translate(-26.64 286.64) rotate(-59.73)"/>
    <ellipse class="cls-13" cx="229.82" cy="167.41" rx="5.24" ry="4.08" transform="translate(39.28 378.45) rotate(-83.99)"/>
    <path class="cls-41" d="M234.81,174.96c-1.96.34-3.47,1.68-3.39,2.98l.52,7.9c.09,1.31,1.74,2.08,3.7,1.74,1.96-.34,3.47-1.68,3.38-2.98l-.52-7.9c-.09-1.3-1.74-2.08-3.7-1.74Z"/>
    <path class="cls-41" d="M235.53,180.3c3.61-.58,6.04-4.09,5.44-7.83l-.85-5.28c-.19-1.17-.65-2.22-1.31-3.1l-11.18,1.8c-.14.48.15,2.56.33,4.23.25,2.36.4,4.74.7,6.38.9,4.94,6.73,3.83,6.73,3.83"/>
    <path class="cls-41" d="M241.98,170.57c1.18-.19,2.29.61,2.48,1.79.19,1.18-.61,2.29-1.79,2.48l-3.48.56-.56-4.29,3.35-.54Z"/>
    <path class="cls-13" d="M236.88,167.88s1.67,4.76,3.28,5.42c0,0,.93-4.25,3.62-6.94l-6.9,1.51Z"/>
    <path class="cls-29" d="M232.23,176.67c.79,0,1.37-.24,1.75-.49.55-.35.81-.77.82-.78.04-.07.02-.16-.05-.21-.07-.04-.16-.02-.21.05h0c-.04.06-.93,1.49-3.13,1.03-.08-.02-.16.04-.18.12-.02.08.04.16.12.18.32.07.61.09.88.09Z"/>
    <path class="cls-29" d="M236.17,171.86s.06,0,.09-.03c.07-.05.08-.14.03-.21-.39-.53-.86-.83-1.37-.89-.82-.09-1.46.45-1.49.47-.06.05-.07.15-.02.21.05.06.15.07.21.02,0,0,.58-.48,1.26-.4.43.05.82.31,1.16.77.03.04.08.06.12.06Z"/>
    <circle class="cls-29" cx="234.33" cy="171.88" r=".54"/>
    <path class="cls-29" d="M231.54,171.68s.07-.01.1-.04c.06-.06.07-.15.01-.21-.47-.52-.97-.79-1.51-.79-.79-.01-1.34.55-1.36.58-.06.06-.06.16,0,.21.06.06.16.06.21,0,0,0,.47-.48,1.12-.48,0,0,.01,0,.02,0,.45,0,.88.24,1.29.69.03.03.07.05.11.05Z"/>
    <circle class="cls-29" cx="229.82" cy="171.88" r=".54"/>
    <path class="cls-35" d="M242.47,174.16s.03,0,.04,0c.03,0,.74-.21,1.08-.81.19-.34.22-.73.1-1.16-.11-.38-.32-.64-.62-.8-.59-.3-1.33-.03-1.36-.02-.08.03-.12.12-.09.19.03.08.12.12.19.09,0,0,.65-.24,1.12,0,.22.11.38.32.46.61.1.35.08.67-.07.93-.28.49-.89.66-.89.66-.08.02-.13.1-.11.19.02.07.08.11.15.11Z"/>
    <path class="cls-29" d="M231.06,170.37c.05,0,.1-.03.13-.07.04-.07.02-.16-.05-.21-.06-.04-1.52-.93-2.66-.18-.07.05-.09.14-.04.21.05.07.14.09.21.04.98-.65,2.32.17,2.33.18.02.02.05.02.08.02Z"/>
    <path class="cls-29" d="M233.34,170.43c.05,0,.11-.03.13-.08.06-.12.29-.29.65-.38.29-.07,1.04-.18,1.84.37.07.05.16.03.21-.04.05-.07.03-.16-.04-.21-.64-.44-1.4-.59-2.09-.42-.4.1-.73.31-.85.53-.04.07,0,.16.06.2.02.01.05.02.07.02Z"/>
    <ellipse class="cls-13" cx="235.04" cy="163.8" rx="7.8" ry="4.63" transform="translate(-28.51 51.48) rotate(-11.79)"/>
    <g>
      <path class="cls-41" d="M252.34,224.74c.05.14.12.43.19,1.08.14,1.35.21,3.15.36,3.87.15.73.93.63.94-.01.01-.77.12-4.42.19-5.22-.16-.14-1.67.28-1.68.28Z"/>
      <path class="cls-41" d="M251.92,214.52l-.97,5.65c-.07.22-.19.43-.35.63-.41.51-1.23,1.62-1.25,2.44-.04,1.64-.97,2.3-1.1,2.6,1.8.65,2.3-1.67,2.3-1.67,0,0,.14-.1.28,1.19.14,1.35.21,3.15.36,3.87.15.73.93.63.94-.01.01-.81.18-3.25.25-3.91,0-.08,2.82-1.37,2.88-1.46-.13-.86-.53-2.79-.53-2.79-.02-.09.09-.35.11-.43l-.41-3.25-2.51-2.86Z"/>
      <path class="cls-41" d="M253.8,223.49c.05.14.11.44.16,1.09.1,1.35.12,3.16.24,3.87.12.74.91.64.94,0,.03-.77.25-4.42.35-5.22-.15-.14-1.68.25-1.69.25Z"/>
      <path class="cls-41" d="M254.14,222.58c.07.08.21.27.44.7.48.89,1.06,2.1,1.36,2.56.31.47.81.27.63-.17-.21-.52-1.59-4.53-1.77-5.08-.15-.07-.67,1.99-.67,1.99Z"/>
    </g>
    <path class="cls-41" d="M249.98,222.14l4.86.34c-.04-.16-.84-14.58-1.27-16.66-.31-1.49-.43-3.29-1.23-10.29l-6.59,1.17c.21,1.8.79,8.13,1.24,10.27.43,2.1,2.85,14.5,2.99,15.16Z"/>
    <path class="cls-41" d="M234.61,227.71s-4.42,21.13-3.65,27.13c.97,7.58,1.7,13.4.73,20.75l-5.84.4s-3.01-13.63-3.41-20.15c-.49-7.98-.86-30.28-.86-30.28l13.03,2.15Z"/>
    <path class="cls-41" d="M247.98,225.06s-2.99,23.96-2.24,30.49c.94,8.25,1.65,14.59.71,22.59l-4.98.11s-3.78-15.5-4.58-22.57c-.98-8.67-2.13-30.25-2.13-30.25l13.22-.38Z"/>
    <ellipse class="cls-7" cx="236.95" cy="216.08" rx="14.47" ry="12.69" transform="translate(9.09 441.72) rotate(-87.08)"/>
    <path class="cls-15" d="M224.67,192.48l.44-7.62,5.36-1.69h10.2s5.63,1.17,5.63,1.17c0,0,1.89,27.72,3.19,32.64.01.06-25.41-.92-25.41-.92,0,0-.2-19.8.58-23.59Z"/>
    <path class="cls-41" d="M233.46,182.27l-3.48.99s-.49,2.45,5.07,2.45c7.7,0,6.38-2.45,6.38-2.45l-3.66-1.28-4.3.3Z"/>
    <path class="cls-15" d="M241.82,198.7c4.24.07,7.18-.31,11.3-1.79-1.25-9.4-4.16-12.99-8.94-12.88-4.05.09-6.23,3.21-5.3,6.5.43,1.52,2.18,4.8,2.95,8.18Z"/>
    <path class="cls-35" d="M235.79,173.6c.02.43.4.78.84.75s.78-.4.76-.84-.4-.79-.84-.76-.77.41-.75.85Z"/>
    <path class="cls-15" d="M226.43,199.04c-3.12-1.17-5.18-2.39-7.83-4.95,3.28-8.29,6.31-10.74,9.78-9.25,2.94,1.26,3.76,4.77,2.26,7.53-.7,1.28-2.81,3.78-4.21,6.67Z"/>
    <path class="cls-35" d="M231.56,180.03s1.81.81,5.05,0c0,0-2.45,1.19-4.99.88l-.06-.88Z"/>
    <path class="cls-32" d="M241.8,260.09c.08,0,.15-.07.15-.15,0-.08-.07-.15-.15-.15-1.19,0-2.31-2.52-2.64-3.5-.03-.08-.11-.12-.19-.09-.08.03-.12.11-.09.19.05.15,1.28,3.7,2.92,3.7Z"/>
    <path class="cls-32" d="M225.62,259.77c.07,0,.13-.04.14-.11.02-.08-.02-.16-.1-.19-1.14-.34-1.5-3.07-1.54-4.1,0-.08-.07-.15-.16-.14-.08,0-.15.07-.14.16,0,.16.18,3.91,1.75,4.38.01,0,.03,0,.04,0Z"/>
    <path class="cls-36" d="M239.82,273.44l7.4-.11s-.15,3.34-.42,3.87l-1.66,1.12-4.26-.75s-.26-2.36-1.06-4.12Z"/>
    <path class="cls-36" d="M224.77,272.12l7.39-.14s.02,4.21-.25,4.88l-1.83,1.44-3.8-1.28s-.71-2.66-1.51-4.9Z"/>
    <g>
      <g>
        <path class="cls-34" d="M225.68,276.13s0-.83-.28-2.5c0,0,2.61-.77,3.9,0,1.39.83-.28,2.5,1.67,2.5,1.95,0-5.29,0-5.29,0Z"/>
        <path class="cls-6" d="M232.17,274.17s-1.44,2.73-6.47,1.39c0,0-.92,1.76-3.49,2.86-2.57,1.1-5.4,1.31-5.89,4.74,0,0,10.3,3.43,18.73-.1,0,0-.5-7.03-2.87-8.89Z"/>
      </g>
      <path class="cls-25" d="M220.43,279.08s3.83.37,3.83,5.58c0,0-7.78.14-7.95-1.5-.34-3.42,4.11-4.08,4.11-4.08Z"/>
      <path class="cls-34" d="M216.15,282.83l-.16,1.31s8.21,3.64,19.31.05l-.17-1.36s-8.99,3.6-18.97,0Z"/>
      <path class="cls-25" d="M225.41,275.86s.76.63,2.18.87c.46.08.72.59.49,1h0c-.15.27-.46.41-.76.33-.76-.18-2.15-.61-2.68-1.34l.77-.86Z"/>
      <path class="cls-25" d="M224.37,277s.61.78,1.94,1.32c.44.18.57.73.26,1.08h0c-.2.23-.54.3-.81.16-.7-.34-1.97-1.06-2.33-1.89l.94-.68Z"/>
      <path class="cls-25" d="M223.05,277.91s.51.86,1.76,1.57c.41.23.48.8.12,1.11h0c-.23.21-.57.23-.83.06-.66-.43-1.83-1.31-2.07-2.18l1.02-.55Z"/>
    </g>
    <g>
      <g>
        <path class="cls-34" d="M240.53,277.6s0-.83-.28-2.5c0,0,2.61-.77,3.9,0,1.39.83-.28,2.5,1.67,2.5s-5.29,0-5.29,0Z"/>
        <path class="cls-6" d="M247.14,275.68s-1.56,2.69-6.59,1.35c0,0-.92,1.76-3.49,2.86-2.57,1.1-5.4,1.31-5.89,4.74,0,0,10.3,3.43,18.73-.1,0,0-.38-6.99-2.75-8.85Z"/>
      </g>
      <path class="cls-25" d="M235.28,280.55s3.83.37,3.83,5.58c0,0-7.78.14-7.95-1.5-.34-3.42,4.11-4.08,4.11-4.08Z"/>
      <path class="cls-34" d="M231,284.31l-.16,1.31s8.21,3.64,19.31.05l-.17-1.36s-8.99,3.6-18.97,0Z"/>
      <path class="cls-25" d="M240.25,277.33s.76.63,2.18.87c.46.08.72.59.49,1h0c-.15.27-.46.41-.76.33-.76-.18-2.15-.61-2.68-1.34l.77-.86Z"/>
      <path class="cls-25" d="M239.22,278.47s.61.78,1.94,1.32c.44.18.57.73.26,1.08h0c-.2.23-.54.3-.81.16-.7-.34-1.97-1.06-2.33-1.89l.94-.68Z"/>
      <path class="cls-25" d="M237.89,279.38s.51.86,1.76,1.57c.41.23.48.8.12,1.11h0c-.23.21-.57.23-.83.06-.66-.43-1.83-1.31-2.07-2.18l1.02-.55Z"/>
    </g>
    <circle class="cls-29" cx="234.77" cy="200.41" r=".82"/>
    <circle class="cls-29" cx="234.44" cy="208.59" r=".82"/>
    <circle class="cls-29" cx="235.42" cy="213.17" r=".82"/>
    <circle class="cls-29" cx="236.9" cy="196.82" r=".82"/>
    <path class="cls-13" d="M227.44,170.89c.05,0,.11-.03.13-.08.04-.07,0-.17-.06-.2-1.37-.71-2.13-1.54-2.24-2.47-.16-1.34,1.09-2.46,1.11-2.47.06-.05.07-.15.01-.21-.05-.06-.15-.07-.21-.01-.06.05-1.39,1.23-1.21,2.73.12,1.03.93,1.94,2.4,2.7.02.01.05.02.07.02Z"/>
    <path class="cls-35" d="M228.54,173.83c.02.43.4.78.84.75s.78-.4.76-.84-.4-.79-.84-.76-.77.41-.75.85Z"/>
    <path class="cls-29" d="M231.69,174.45c.08,0,.15-.07.15-.15s-.07-.15-.15-.15c-.25,0-.46-.07-.59-.19-.11-.1-.17-.24-.17-.39s.16-.5.45-.5c.12,0,.23-.05.31-.15.34-.43.05-1.77,0-2.04-.02-.08-.1-.13-.18-.11-.08.02-.13.1-.11.18.14.6.25,1.55.06,1.78-.02.03-.05.04-.07.04-.47,0-.75.41-.75.8,0,.24.09.45.26.61.19.18.46.27.8.27Z"/>
    <path class="cls-41" d="M209.63,194.56s11.83,11.41,8.92,14.72c-3.77,4.27-11.14-9.06-12.8-13.43"/>
    <g>
      <path class="cls-41" d="M205.16,190.25c-.17-.04-.52-.17-1.23-.52-.24-.12-.49-.25-.74-.38-.17-.09-.36-.1-.54-.04-.44.16-.54.53-.56.87,0,.13.05.25.16.32.92.62,1.76,1.2,2.08,1.44.25-.05.82-1.68.82-1.69Z"/>
      <path class="cls-41" d="M208.9,193.53c-.09-.26-.14-.53-.13-.81.01-.74-.03-2.3-.6-3.09-1.15-1.59-.77-2.79-.86-3.15-2.15.47-.94,2.99-.94,2.99,0,0-.06.18-1.13-.97-.34-.37-.71-.78-1.07-1.2-.5-.31-1.04.04-1.2.55-.04.14-.01.29.07.41.35.53.65.99.79,1.23.05.08-1.64,3.02-1.63,3.14.74.74,2.52,2.35,2.52,2.35.08.07.15.15.19.25l2.06,3.07,3.33-2.9-1.39-1.86Z"/>
      <path class="cls-41" d="M205.83,192.32c-.17-.03-.53-.14-1.25-.46-.7-.31-1.09-.65-1.83-1-.08-.04-.48-.25-.76-.07-.4.25-.51.45-.42.92.02.12.09.22.19.28,1.33.8,2.86,1.74,3.34,2.07.24-.06.73-1.73.73-1.74Z"/>
      <path class="cls-41" d="M204.97,193.44c-.11-.02-.33-.1-.78-.3-.93-.42-1.52-1.05-2.04-.86-.58.21-.45.83-.05,1.06.49.28,2.09,1.23,2.57,1.55.16-.03.31-1.45.31-1.45Z"/>
    </g>
    <path class="cls-18" d="M223.42,214.3s-3.83,10.65-2.64,34.35l2.89,20.14h10.35s-.06-7.92-2.17-16.23c-1.27-4.99,3.41-25.12,3.41-25.12l-11.84-13.14Z"/>
    <path class="cls-18" d="M237.43,214.07s-4.43,10.54-3.13,34.24l3.13,20.14h11.22s-.06-7.92-2.36-16.23c-1.38-4.99,2.85-32.54,2.85-32.54l-11.72-5.61Z"/>
    <path class="cls-36" d="M227.95,191.43c-3.95-1.62-5.79-4.1-5.87-4.21l.56-.6s1.81,2.65,5.57,4.19l-.26.62Z"/>
    <path class="cls-36" d="M225.59,195.1c-3.95-1.62-5.63-4.07-5.7-4.19l.39-.62s1.81,2.65,5.57,4.19l-.26.62Z"/>
    <path class="cls-36" d="M244.67,191.14l-.02-.67v.34s0-.34,0-.34c.03,0,3.2-.15,6.2-2.2l.33.64c-3.17,2.18-6.37,2.23-6.5,2.24Z"/>
    <rect class="cls-36" x="227.82" y="190.15" width="15.79" height=".67"/>
    <polygon class="cls-18" points="228.69 197.63 226.5 197.63 226.45 184.19 228.64 183.69 228.69 197.63"/>
    <polygon class="cls-18" points="244.89 198.35 242.7 198.35 242.76 183.35 244.95 183.69 244.89 198.35"/>
    <path class="cls-36" d="M245.89,195.57l-.02-.67h0c.05,0,3.2-.09,6.49-2.46l.17.67c-3.47,2.5-6.49,2.46-6.63,2.46Z"/>
    <path class="cls-18" d="M223.42,214.8s.09-13.78,1.51-21.7l21.19.34s-.5,8.58,2.35,8.58l1.01,14.97-17.49,10.6-8.58-12.78Z"/>
    <path class="cls-37" d="M228.69,198.35h13.18s.73,7.37-7,7.37c-6.9,0-6.17-7.37-6.17-7.37Z"/>
    <path class="cls-13" d="M234.46,158.84c.07,0,.13-.04.14-.11,0-.01.42-1.4,1.48-1.59.08-.02.14-.09.12-.18-.02-.08-.09-.14-.18-.12-1.24.23-1.69,1.74-1.71,1.8-.02.08.02.16.1.19.01,0,.03,0,.04,0Z"/>
    <path class="cls-13" d="M234.86,158.61s.07-.01.1-.04c.06-.06.07-.15.01-.21-.35-.39-1.15-1.51-.68-1.98.06-.06.06-.15,0-.21-.06-.06-.15-.06-.21,0-.76.76.61,2.33.67,2.39.03.03.07.05.11.05Z"/>
    <polygon class="cls-13" points="237.72 166.03 239.38 165.07 241.06 166.36 238.98 168.55 237.72 166.03"/>
    <rect class="cls-37" x="222.58" y="266.26" width="12.03" height="2.77"/>
    <polygon class="cls-37" points="248.82 268.78 236.88 268.78 236.88 266.01 248.99 266.01 248.82 268.78"/>
    <path class="cls-37" d="M234.07,240.99c.08,0,.15-.06.15-.15l.29-11.08-.73-9.61-1.16-1.26c-.06-.06-.15-.07-.21,0-.06.06-.07.15,0,.21l1.09,1.18.72,9.49-.29,11.06c0,.08.06.15.15.15,0,0,0,0,0,0Z"/>
    <circle class="cls-37" cx="227.54" cy="194.7" r=".76"/>
    <circle class="cls-37" cx="243.86" cy="195.04" r=".76"/>
  </g>
  <g class="cls-20">
    <g>
      <path class="cls-5" d="M150.89-313.3l-54.3,30.89L244.7,208.45l54.3-30.89v-438.58c0-15.04-10.79-27.91-25.6-30.54l-122.52-21.74Z"/>
      <polygon class="cls-5" points="62.36 -458.72 31.54 171.83 96.44 183.06 96.65 -452.55 62.36 -458.72"/>
      <path class="cls-42" d="M96.44-282.97V183.56l148.45,25.45V-223.03c0-19.44-13.94-36.07-33.08-39.47l-115.37-20.47Z"/>
    </g>
  </g>
  <g class="cls-21">
    <g>
      <path class="cls-9" d="M371.25,91.96l21.16-24.91s-11.76-164.66-42.99-188.69c-12.1-9.31-27.37-16.82-29.69,1.14-3.6,27.92,51.52,212.46,51.52,212.46Z"/>
      <path class="cls-9" d="M403.55,78.95l15.51,15.71,13.7-20.51s16.43-182.83-11.48-204.96c-18.51-14.67-34.15-13.93-37.91,2.1-1.8,7.65-1.55,13.9-.97,21.03l21.15,186.63Z"/>
      <path class="cls-29" d="M447.54-286.73s50.26,59.93-2.99,148.65l-4.43,195.41-46.57,2.03s-15.51-154.85-12.51-194.67c2.99-39.82,21.33-126.12,21.33-126.12l45.19-25.3Z"/>
      <path class="cls-29" d="M446.32-287.9l-82.28,3.59s-43.95,128.7-48.81,158.63c-5.93,36.51,40.49,173.57,40.49,173.57l36.41-1.59s2.78-118.14-28.76-163.8c-.19-.28,61.35-52.31,66.94-87.76"/>
      <path class="cls-2" d="M393.58,59.17s-15.07-153.79-12.61-186.93c2.35-31.72,6.54-96.84,6.54-96.84"/>
      <path class="cls-38" d="M396.08,60.96s-10.24,3.87-14.61,11.3c-5.01,8.51-5.83-11.7-20.03-7.01,0,0-1.18,11.47-12.07,15.19-10.89,3.72-16.71-1.68-18.9,9.58,0,0,27.06,14.23,79.03,1.32,0,0-3.39-23.99-13.42-30.37Z"/>
      <path class="cls-28" d="M330.52,90.11l-1.63,6.08s34.73,16.4,81.71,1.47l-1.06-6.73s-41.79,13.28-79.03-.82Z"/>
      <g>
        <path class="cls-38" d="M432.42,71.15s-10.24,3.87-14.61,11.3c-5.01,8.51-5.83-11.7-20.03-7.01,0,0-1.18,11.47-12.07,15.19-10.89,3.72-16.71-1.68-18.9,9.58,0,0,27.06,14.23,79.03,1.32,0,0-3.39-23.99-13.42-30.37Z"/>
        <path class="cls-28" d="M366.86,99.26l-1.63,6.08s34.73,16.4,81.71,1.47l-1.06-6.73s-41.79,13.28-79.03-.82Z"/>
      </g>
      <path class="cls-28" d="M366.86,99.78s-.09,0-.13-.02c-.28-.07-.44-.35-.37-.63,2.13-8.24,7.68-8.2,11.37-8.19h.52c.2,0,.41,0,.64,0,4.47.05,13.74.16,18.39-15.66.08-.27.37-.43.64-.35.27.08.43.37.35.64-4.87,16.57-15.05,16.46-19.4,16.4-.22,0-.44,0-.63,0h-.53c-3.76-.02-8.44-.04-10.36,7.41-.06.23-.27.39-.5.39Z"/>
    </g>
  </g>
</svg>