<svg xmlns:xlink="http://www.w3.org/1999/xlink" xmlns="http://www.w3.org/2000/svg" width="93" height="93" viewBox="0 0 93 93" fill="none">
<mask id="mask0_23135_366840" style="mask-type:alpha" maskUnits="userSpaceOnUse" x="0" y="0" width="93" height="93">
<circle cx="46.5" cy="46.5" r="46.5" fill="#DEEEFF"/>
</mask>
<g mask="url(#mask0_23135_366840)">
<path d="M15.0155 60.1742C15.4633 61.1433 16.6061 61.571 17.5685 61.1299L18.0965 60.8893C19.0522 60.4415 19.4799 59.2987 19.0455 58.3363L14.9754 49.4544C14.541 48.492 13.3982 48.0642 12.4224 48.492L11.9212 48.7393C10.9454 49.187 10.5177 50.3365 10.9788 51.2789L15.0155 60.1742Z" fill="#DEDBDA"/>
<path d="M14.2545 60.645C14.6955 61.6208 15.8451 62.0285 16.8074 61.594L17.3153 61.3534C18.2777 60.9124 18.7255 59.7628 18.2644 58.8005L14.2077 49.9185C13.7666 48.9494 12.617 48.5217 11.6413 48.9628L11.1334 49.2034C10.1576 49.6512 9.7299 50.794 10.1777 51.7564L14.2545 60.645Z" fill="#18172B"/>
<path d="M12.0681 52.6769C12.3087 53.1848 12.7631 53.4989 13.0973 53.3519C13.4381 53.1915 13.525 52.6569 13.2844 52.1356C13.0639 51.6143 12.6094 51.3068 12.2619 51.4606C11.9277 51.6076 11.8408 52.1556 12.0681 52.6769Z" fill="#929497"/>
<path d="M12.5562 57.984C11.9814 58.4652 11.6339 59.4543 11.7542 60.2095L12.1151 62.0607C12.2488 62.8092 12.897 63.7182 13.5453 64.0857L14.8285 64.8008C15.4901 65.1684 17.7423 68.2627 17.7423 68.2627L20.8834 65.7098C20.8834 65.7098 20.2753 64.2328 19.2728 62.2078C18.9387 61.5328 18.3505 60.5904 17.6822 60.2162L17.4149 60.0758C16.7666 59.7082 15.8309 58.9397 15.3163 58.3649L14.8619 57.857C14.3673 57.2756 13.5052 57.2154 12.9037 57.6966L12.5562 57.984Z" fill="#F5A487"/>
<path d="M19.5273 62.7245C20.5298 66.4804 25.5823 71.4527 28.3558 73.4109C30.9957 75.4226 34.745 75.3557 37.2445 73.5312C39.7039 71.7735 40.9403 67.8639 41.4817 63.9141C42.0431 59.9242 41.9562 55.7004 41.7089 51.49C41.5618 49.5519 42.698 47.8677 44.2418 47.714C45.7857 47.5737 47.1758 49.1041 47.3428 51.1291C47.5901 55.5935 47.7037 60.0712 47.0688 64.7094C46.3537 69.1671 45.2443 74.4602 40.5995 78.0624C36.0349 81.4842 29.4719 81.2704 25.1278 78.0223C20.757 74.8812 17.9301 69.8621 16.707 65.3176L19.5273 62.7245Z" fill="#F5A487"/>
<path d="M28.3491 73.4109C30.9889 75.4226 34.7382 75.3557 37.2377 73.5312C39.6971 71.7735 40.9335 67.8639 41.4749 63.9141C42.0363 59.9242 41.9494 55.7004 41.7021 51.49C41.5551 49.5519 42.6912 47.8677 44.235 47.714C45.7789 47.5737 47.169 49.1041 47.336 51.1291C47.5833 55.5935 47.6969 60.0712 47.062 64.7094C46.3469 69.1671 45.2375 74.4602 40.5927 78.0624C36.0281 81.4842 29.4652 81.2704 25.1211 78.0223L28.3491 73.4109Z" fill="#D7CFBB"/>
<path d="M77.592 30.899V38.5178H76.1685C71.1093 38.5178 67.0059 34.4277 67.0059 29.3752V21.7363H68.4294C73.4752 21.7363 77.592 25.8398 77.592 30.899Z" fill="#826450"/>
<path d="M68.0281 19.3105C69.3781 19.3105 70.4809 20.3999 70.4809 21.7432C70.4809 23.0866 69.3781 24.196 68.0281 24.196C66.6915 24.196 65.5821 23.0866 65.5821 21.7432C65.5754 20.3999 66.6981 19.3105 68.0281 19.3105Z" fill="#E6C812"/>
<path d="M56.4531 31.0727C59.5675 30.2239 64.0118 26.9825 65.6425 24.082C67.1463 26.4278 66.3309 29.7293 65.1079 32.0016C63.8715 34.3274 61.8666 35.0024 59.4138 35.3499C58.0371 35.5571 56.7071 35.517 55.3438 35.3232L56.4531 31.0727Z" fill="#1D2831"/>
<path d="M42.9854 59.5251L44.2218 55.8694L43.4532 47.9231L56.8597 42.7637L69.364 45.8981L65.7216 80.0492L45.6587 82.121L45.6921 70.265L45.4247 67.7722C43.0388 65.8742 41.9495 62.6128 42.9854 59.5251Z" fill="#EDE7E2"/>
<path d="M61.1837 43.8628L51.9609 56.6945V44.6447L56.853 42.7734L61.1837 43.8628Z" fill="#F6AB8F"/>
<path d="M57.3953 29.774C59.1998 29.8341 60.5899 31.3378 60.5231 33.1089L60.1755 43.9357C60.1154 45.7134 54.0203 46.5688 54.0203 46.5688L53.7129 44.5839L54.0671 32.9017C54.1072 31.1106 55.6109 29.7205 57.3953 29.774Z" fill="#F6AB8F"/>
<path d="M49.2619 39.8712C57.5959 39.8712 64.2991 33.6959 64.2857 27.7345L64.2456 19.327C64.2389 17.4557 63.7778 15.7248 62.9224 14.1943L44.4633 14.2545C43.7415 15.7983 43.3339 17.5359 43.3339 19.4139C43.3339 19.4139 43.227 27.3469 43.3673 29.9801C43.6681 35.5939 45.4057 38.0133 49.2619 39.8712Z" fill="#F6AB8F"/>
<path d="M53.8599 32.1517C53.5792 33.7824 52.1691 34.9988 50.4649 34.9988C48.754 34.9921 47.3572 33.749 47.0898 32.125L53.8599 32.1517Z" fill="#F5F4F4"/>
<path d="M50.1564 14.4093C47.5032 15.8061 44.1081 19.5955 43.2326 22.5361C41.368 20.7517 41.4015 17.6641 42.0297 15.3584C42.6913 13.0393 44.3821 12.0234 46.5609 11.2014C47.7638 10.7469 49.0203 10.493 50.2968 10.3994L50.1564 14.4093Z" fill="#826450"/>
<path d="M67.2324 26.1788C67.9742 23.853 68.6158 21.427 68.6024 20.0636C68.5022 14.7037 64.539 10.3062 59.3328 9.29032C54.5811 8.36803 50.1301 9.78487 45.7793 11.5492C46.3808 12.6921 47.029 13.7747 47.6506 14.8975C50.1434 19.5156 54.7214 22.9976 59.9009 24.9023V26.152C59.9009 27.1946 60.7296 28.01 61.7588 28.0033H64.8531L67.2324 26.1788Z" fill="#826450"/>
<path d="M57.2335 75.6006C52.582 75.6006 48.4117 77.7058 45.6582 81.0407V90.6712H72.2974C72.2974 90.6645 72.2974 90.6645 72.2974 90.6512C72.2573 82.3373 65.5407 75.6006 57.2335 75.6006Z" fill="#EDE7E2"/>
<path d="M64.7317 24.0332C63.0676 24.0332 61.7109 25.3832 61.7109 27.0473V30.0681H64.7317C66.4092 30.0681 67.7525 28.7114 67.7525 27.0473C67.7525 25.3832 66.4159 24.0332 64.7317 24.0332Z" fill="#F6AB8F"/>
<path d="M61.7927 83.3869C61.5321 82.5448 61.7726 81.3285 62.3274 80.6936L63.7642 79.1164C64.339 78.4681 65.4885 78.027 66.3239 78.0871L67.9546 78.2141C68.79 78.281 73.2611 77.2852 73.2611 77.2852L74.1433 81.3753C74.1433 81.3753 72.7999 82.2575 70.6413 83.5807C69.9262 84.0352 68.7967 84.5632 67.9613 84.4963L67.6338 84.4696C66.7917 84.4161 65.4351 84.5565 64.6331 84.7837L63.8912 84.9909C63.0825 85.2382 62.2071 84.7369 61.9531 83.8882L61.7927 83.3869Z" fill="#F5A487"/>
<path d="M84.8963 74.4719C81.9757 78.0006 78.2398 79.9989 74.9985 81.6296L71.6502 82.9729L70.0195 78.3281L72.9534 77.1518C75.9742 75.8018 78.7945 73.9238 80.7193 71.7451L84.8963 74.4719Z" fill="#F5A487"/>
<path d="M76.8889 73.8973C80.8654 71.1171 83.405 67.3879 81.8278 63.6587C79.9164 58.5193 73.4537 54.4692 67.0846 52.2571C65.5207 51.7425 64.672 49.8512 65.1732 48.0534C65.6878 46.2623 67.5591 45.2732 69.3769 45.9014C76.5681 48.6415 84.5679 52.5311 88.2236 61.4799C89.9746 66.0045 88.6179 71.7253 85.5971 75.0936C84.3473 76.5973 82.9438 77.8404 81.4802 78.8964L76.8889 73.8973Z" fill="#EDE7E2"/>
<path d="M51.9609 56.6913L60.5154 50.643L62.5338 44.187L60.3016 41.3467L51.9609 56.6913Z" fill="#D7CFBB"/>
<path d="M51.1719 58.6322C51.1719 59.0666 51.5194 59.4342 51.9605 59.4342C52.3882 59.4342 52.7357 59.0666 52.7357 58.6322C52.7357 58.1978 52.3882 57.8369 51.9605 57.8369C51.5194 57.8436 51.1719 58.2045 51.1719 58.6322Z" fill="#929497"/>
<path d="M51.1719 66.9993C51.1719 67.4337 51.5194 67.7812 51.9605 67.7812C52.3882 67.7812 52.7357 67.4337 52.7357 66.9993C52.7357 66.5648 52.3882 66.1973 51.9605 66.1973C51.5194 66.1973 51.1719 66.5648 51.1719 66.9993Z" fill="#929497"/>
<path d="M51.961 56.6913L50.2969 45.2764L53.7721 41.3467L53.6986 43.9799L51.961 56.6913Z" fill="#EDE7E2"/>
<path d="M76.6094 73.9906L80.4923 70.6758C80.4923 70.6758 81.7287 72.1461 83.2257 73.9572C84.7428 75.7617 84.5022 78.5018 82.9383 79.8318L82.0896 80.5402L76.6094 73.9906Z" fill="#D7CFBB"/>
<path d="M52.3691 24.9566C52.3691 25.3977 52.7233 25.7385 53.1511 25.7385C53.5922 25.7385 53.933 25.3977 53.933 24.9566C53.933 24.5289 53.5988 24.168 53.1511 24.168C52.7233 24.168 52.3691 24.5289 52.3691 24.9566Z" fill="#26313C"/>
<path d="M45.666 24.9566C45.666 25.3977 46.0068 25.7385 46.4479 25.7385C46.8823 25.7385 47.2299 25.3977 47.2299 24.9566C47.2299 24.5289 46.8823 24.168 46.4479 24.168C46.0135 24.168 45.666 24.5289 45.666 24.9566Z" fill="#26313C"/>
<path d="M72.2907 90.6465L72.2239 94.7566H45.6582V90.6665L72.2907 90.6465Z" fill="#EDE7E2"/>
<path d="M52.7637 94.7605H59.614L52.7637 74.8779V94.7605Z" fill="#18172B"/>
<path d="M28.3088 71.6768L31.9177 75.279C31.9177 75.279 30.5477 76.6223 28.8635 78.2798C27.1727 79.9305 24.4392 79.9105 23.009 78.4669L22.207 77.6783L28.3088 71.6768Z" fill="#EDE7E2"/>
</g>
</svg>