<svg xmlns="http://www.w3.org/2000/svg" xmlns:xlink="http://www.w3.org/1999/xlink" version="1.1" x="0px" y="0px" viewBox="0 0 109.605 151.654" style="enable-background:new 0 0 109.605 151.654;" xml:space="preserve" width="109.605"  height="151.654" >
<style type="text/css">
	.st0{fill:#FFFFFF;}
</style>
    <g id="Fond">
	<g>
		<g>
			<defs>
				<path id="SVGID_1_" d="M109.605,140.314c0,6.263-5.076,11.34-11.34,11.34H11.339C5.077,151.654,0,146.577,0,140.314V11.338      C0,5.076,5.077,0,11.339,0h86.926c6.264,0,11.34,5.076,11.34,11.338V140.314z"/>
			</defs>
            <use xlink:href="#SVGID_1_" style="overflow:visible;fill:#009FE3;"/>
            <clipPath id="SVGID_00000106147646716085778620000004796256802901446590_">
				<use xlink:href="#SVGID_1_" style="overflow:visible;"/>
			</clipPath>
		</g>
	</g>
</g>
    <g id="Logos">
	<g>
		<path class="st0" d="M40.972,74.889l0.959-2.522c0.439-1.113,0.889-2.268,1.271-3.43l0.018-0.054l0.727-0.952    c1.023-1.312,2.154-2.759,2.154-4.226c0-0.303-0.053-0.607-0.16-0.912l-0.248-0.504l0.008-0.019l0,0c0,0,0.016-0.037,0.023-0.053    c-0.035-0.035-0.121-0.11-0.121-0.11l-0.012-0.01c0,0-0.002-0.004-0.004-0.006l0,0c-0.59-0.533-1.527-1.246-2.432-1.938    c-1.205-0.916-2.346-1.786-2.793-2.306c-0.811-0.934-4.834-4.78-4.85-4.8l-2.896-1.763l-0.123-0.231l-0.008-0.022    c0,0-0.021-0.077-0.037-0.127c-0.758-0.267-1.307-0.769-1.756-1.312c-0.205-0.082-0.41-0.166-0.613-0.26    c-0.15-0.07-0.381-0.146-0.469-0.265c-0.266-0.363,0.293-0.254,0.494-0.22c0.006,0.002,0.016,0.002,0.025,0.006    c-0.342-0.415-0.877-0.729-1.432-0.833l-0.33-0.016c-0.525-0.014-0.91-0.04-1.062-0.208c0,0-0.066-0.182-0.066-0.186    c0.008-0.129,0.064-0.209,0.123-0.278c-0.014-0.006-0.035-0.014-0.035-0.018c-0.242-0.105-0.287-0.246-0.287-0.335    c0-0.011,0-0.021,0-0.033c0.012-0.098,0.092-0.277,0.494-0.35c0.166-0.03,0.342-0.048,0.52-0.052    c0.027-0.029,0.09-0.045,0.203-0.026c0.051,0.007,0.108,0.018,0.16,0.03c0.678,0.035,1.322,0.194,1.633,0.283    c0.4,0.112,0.824,0.297,1.262,0.548l0.447,0.217c0,0,0.596,0.306,0.598,0.306c0.203,0.137,0.328,0.331,0.451,0.521l0.26,0.348    l0.068,0.068c0,0,0.062,0.06,0.119,0.117c0.117-0.071,0.295-0.182,0.295-0.182l0.047-0.017l0.318,0.021l0.064,0.003l0.033,0.023    c0.07,0.056,7.037,5.404,11.275,7.197c1.822,0.769,3.094,1.217,4.022,1.544c1.269,0.449,1.967,0.691,2.639,1.259l0.643,0.573    c1.053,0.965,2.369,2.167,3.246,1.637c0.963-0.586,0.99-0.916,0.99-0.952l-0.02-0.172c0,0,0.357-0.002,0.455-0.004    c0.07-0.107,0.738-1.082,0.795-1.165c-0.02-0.132-0.061-0.44-0.061-0.785c0-0.526,0.1-1.123,0.527-1.229    c0,0,0.551-0.137,0.609-0.154c0.23-0.202,2.744-2.399,4.008-1.625c0.199,0.17,0.447,0.312,0.711,0.463    c0.566,0.321,1.205,0.687,1.486,1.464c0.311,0.884,0.342,1.896,0.342,2.267c0,0.088-0.002,0.14-0.002,0.15l-0.002,0.058    l-0.043,0.039c-0.035,0.035-0.861,0.825-1.307,1.057c-0.203,0.101-0.662,0.481-1.102,0.849c-0.447,0.37-0.867,0.719-1.086,0.839    l-1.033,0.534c0,0-0.605,0.036-0.832,0.049c0.006,0.046,0.018,0.09,0.018,0.145c0,0.091-0.016,0.189-0.061,0.277    c-0.061,0.11-0.16,0.193-0.289,0.229l-0.174,0.052c-0.207,0.06-0.447,0.126-0.506,0.233c-0.008,0.015-0.014,0.031-0.014,0.061    c0,0.018,0.002,0.043,0.01,0.071c0.047,0.161,0.141,0.23,0.428,0.429c0.238,0.16,0.564,0.384,1.029,0.797l0.377,0.334    c0.875,0.781,1.781,1.59,2.613,2.267c0.346,0.28,1.225,0.881,2.242,1.577c1.803,1.229,4.041,2.762,5.043,3.677    c1.551,1.414,5.662,4.446,5.705,4.473l0.051,0.04c0,0,0.018,0.255,0.023,0.329c0.225,0.109,0.463,0.143,0.719,0.164l0.08,0.004    l0.373-0.026c0.199-0.033,0.406-0.066,0.623,0l0.553,0.243l0.404,0.191c0.424,0.162,0.795,0.357,1.111,0.58    c0.348,0.248,1.205,0.915,1.645,1.703c0.117,0.209,0.176,0.371,0.098,0.503c-0.084,0.133-0.26,0.133-0.42,0.122    c-0.533-0.029-1.283-0.541-1.328-0.572c-0.381-0.329-0.875-0.523-1.328-0.523c0.045,0.084,0.145,0.187,0.336,0.305    c0.672,0.408,0.254,0.582,0.254,0.582s-0.686-0.471-1.395-0.825c-0.826,0.026-1.705-0.109-2.492-0.879    c-0.092,0.005-0.23,0.016-0.23,0.016c-0.535-0.045-3.281-1.478-4.195-2.187c-0.914-0.684-6.229-3.799-8.076-4.376    c-0.025,0.039-0.059,0.083-0.059,0.083s-0.508-0.226-0.508-0.23c-0.74-0.16-0.971-0.136-1.357-0.101l-1.025,0.043    c0,0-0.039-0.125-0.039-0.131c-0.098,0.053-0.23,0.127-0.23,0.127l-0.031,0.002c-0.236,0.009-0.475,0.045-0.678,0.097    c-0.744,0.396-1.43,1.107-2.051,2.129c0,0-0.369,0.419-0.371,0.42c-0.33,0.371-0.608,0.723-0.824,1.054    c-0.824,1.144-1.438,2.313-1.83,3.485c0.078,0.752,0.213,1.479-0.469,2.184c0,0.004,0,0.008,0,0.008l-0.031,0.695l-0.018,1.428    l-0.018,1.918l-0.004,0.016c-0.107,0.443-0.211,0.914-0.213,1.406c0,0.002,0,0.002,0,0.004c0,0.607,0.176,1.199,0.348,1.739    c0.049,0.515,0.115,0.997,0.199,1.438l0.221,2.234c0.135,1.315,0.264,2.557,0.332,3.769c0.088,1.634,0.256,3.317,0.418,4.942    c0.166,1.715,0.342,3.487,0.428,5.189c0.027,0.592,0.404,2.037,0.836,3.715c0.58,2.245,1.238,4.781,1.322,6.238    c6.381,10.092,12.887,20.672,12.953,20.775c2.773,4.387,7.527,7,12.719,7c8.305,0,15.059-6.754,15.059-15.052    c0-2.86-0.805-5.641-2.328-8.048l0,0c-0.719-1.135-17.592-27.818-17.754-28.085l-0.059-0.1l0.078-0.076    c5.691-5.677,8.826-13.22,8.826-21.235c0-15.106-11.225-27.963-26.102-29.905c-0.396-0.024-27.533-0.012-41.973,0    c0,0-2.803,0-2.844,0c-1.959,0.488-3.532,2.006-4.11,3.967c0,0.047-0.004,65.699-0.004,65.699    c1.279,7.209,7.585,12.435,14.995,12.435c4.627,0,8.953-2.034,11.871-5.585c1.316-1.806,2.178-3.835,2.562-6.003v-9.388    c0,0,0.008-0.632,0.01-0.65c0.064-0.525,0.098-1.088,0.098-1.671c0-0.002,0-0.009,0-0.012c0-1.45-0.367-2.779-0.754-4.188    c0,0-0.109-0.4-0.111-0.416l-0.236-1.456c0,0-0.471-2.941-0.471-2.964c-0.002-0.072-0.002-0.143-0.002-0.215    c0-0.965,0.072-1.941,0.145-2.884c0.068-0.948,0.143-1.92,0.143-2.887c0-0.292-0.008-0.579-0.022-0.867    c-0.072-1.383-0.145-2.791-0.145-4.225c0-0.033,0-0.066,0.002-0.1c-0.104-0.483-0.096-1.138-0.029-1.524    c0.023-0.143,0.053-0.297,0.088-0.446c0.02-0.355,0.047-0.717,0.08-1.08C40.617,76.601,40.757,75.776,40.972,74.889z"/>
        <g>
			<path class="st0" d="M12.304,11.317V7.166h4.881v4.151H12.304z M12.304,34.523V12.545h4.881v21.979H12.304z"/>
            <path class="st0" d="M24.14,14.505h0.076c0.77-1.46,1.305-2.229,3.264-2.229c1.73,0,2.576,0.501,3.152,2.268     c0.844-1.461,1.383-2.268,3.342-2.268c3.074,0,3.379,2.421,3.379,4.074v18.173h-4.877V17.426c0-0.538-0.232-1.153-0.883-1.153     c-0.654,0-0.846,0.616-0.846,1.153v17.097h-4.881V17.426c0-0.538-0.229-1.153-0.881-1.153c-0.656,0-0.846,0.616-0.846,1.153     v17.097h-4.881V12.545h4.881V14.505z"/>
            <path class="st0" d="M39.353,17.233c0-3.303,2.613-4.957,5.725-4.957c3.074,0,5.766,1.654,5.766,4.957v12.833     c0,1.538,0.23,2.998,0.344,4.457H46.23l-0.268-2.228h-0.078c-0.652,1.767-1.844,2.497-3.264,2.497     c-2.461,0-3.268-1.459-3.268-3.957v-4.726c0-5.532,6.609-3.42,6.609-8.184v-0.883c0-0.538-0.23-1.153-0.885-1.153     c-0.652,0-0.844,0.615-0.844,1.153v3.15h-4.881V17.233z M44.234,30.028c0,0.538,0.191,1.153,0.844,1.153     c0.654,0,0.885-0.615,0.885-1.153v-6.339l-0.885,0.613c-0.691,0.617-0.844,0.77-0.844,1.729V30.028z"/>
            <path class="st0" d="M64.406,34.485c0,3.612-2.307,4.957-5.727,4.957c-3.418,0-5.762-1.345-5.762-4.957v-1.652h4.879v2.075     c0,0.537,0.191,1.153,0.846,1.153c0.652,0,0.883-0.617,0.883-1.153V29.99h-0.191c-0.576,1.23-1.883,2.112-3.344,2.112     c-2.227,0-3.072-1.613-3.072-3.725v-12.18c0-2.113,0.846-3.92,3.072-3.92c1.461,0,2.767,1.076,3.344,2.307h0.191v-2.038h4.881     V34.485z M59.525,17.426c0-0.538-0.231-1.153-0.883-1.153c-0.654,0-0.846,0.616-0.846,1.153v9.681     c0,0.539,0.191,1.154,0.846,1.154c0.652,0,0.883-0.615,0.883-1.154V17.426z"/>
            <path class="st0" d="M66.595,11.317V7.166h4.879v4.151H66.595z M66.595,34.523V12.545h4.879v21.979H66.595z"/>
            <path class="st0" d="M78.544,14.467h0.076c0.307-1.344,1.996-2.191,3.305-2.191c3.113,0,3.227,2.268,3.227,4.805v17.443h-4.879     V17.426c0-0.538-0.23-1.153-0.883-1.153c-0.656,0-0.846,0.616-0.846,1.153v17.097h-4.881V12.545h4.881V14.467z"/>
            <path class="st0" d="M87.226,17.233c0-3.303,2.613-4.957,5.725-4.957c3.074,0,5.764,1.654,5.764,4.957v7.069h-6.607v5.726     c0,0.538,0.191,1.153,0.844,1.153c0.654,0,0.885-0.615,0.885-1.153v-4.226h4.879v4.035c0,3.305-2.689,4.956-5.764,4.956     c-3.111,0-5.725-1.651-5.725-4.956V17.233z M93.835,20.999v-3.958c0-0.538-0.23-1.153-0.885-1.153     c-0.652,0-0.844,0.615-0.844,1.153v3.958H93.835z"/>
		</g>
	</g>
</g>
</svg>