<svg xmlns:xlink="http://www.w3.org/1999/xlink" xmlns="http://www.w3.org/2000/svg" class="icon icon-forfait-reduction" aria-hidden="true" focusable="false" width="31"  height="30" ><defs><symbol fill="none" viewBox="0 0 31 30" id="forfait-reduction" xmlns="http://www.w3.org/2000/svg"><path d="M29.49 14.745a2.37 2.37 0 0 0-1.575-.855 2.236 2.236 0 0 0-1.725.51l-3.69 2.94a2.25 2.25 0 0 0-1.5-.84l-5.775-.45a5.536 5.536 0 0 1-1.59-.36A11.893 11.893 0 0 0 10.11 15a6.255 6.255 0 0 0-4.98 2.88l-.225.315H4.77a2.385 2.385 0 0 0-1.77.42L0 20.91l6.18 8.13 3-2.295c.49-.36.82-.899.915-1.5.007-.115.007-.23 0-.345l1.23-.9a2.04 2.04 0 0 1 1.08-.195l7.335.78a4.771 4.771 0 0 0 3.825-1.29l5.7-5.295a2.355 2.355 0 0 0 .225-3.255Zm-21 11.04-2.07 1.5-4.74-6.15 2.07-1.5a1.094 1.094 0 0 1 .855-.225 1.14 1.14 0 0 1 .765.435l3.315 4.38a1.11 1.11 0 0 1 .225.855 1.08 1.08 0 0 1-.435.705h.015Zm20.01-8.73L22.74 22.5a3.57 3.57 0 0 1-2.88.975l-7.32-.795a3.15 3.15 0 0 0-1.815.36l-.99.66a1.002 1.002 0 0 0-.09-.18l-3.33-4.455a2.052 2.052 0 0 0-.33-.3l.135-.225s1.635-2.535 3.915-2.385c1.075.055 2.136.267 3.15.63a6.703 6.703 0 0 0 1.92.435l5.76.45a1.079 1.079 0 0 1 .96 1.2 1.08 1.08 0 0 1-.39.735 1.049 1.049 0 0 1-.81.225l-4.665-.495-.135 1.2 4.68.495h.24a2.31 2.31 0 0 0 1.5-.51c.467-.37.77-.909.84-1.5a2.33 2.33 0 0 0 0-.465L27 15.33a1.14 1.14 0 0 1 .84-.255c.298.04.57.19.765.42a1.155 1.155 0 0 1-.105 1.56ZM12.99 12.885H25.5a.9.9 0 0 0 .9-.9V3.81a.81.81 0 0 0-.78-.81H12.99a.915.915 0 0 0-.915.915V12a.902.902 0 0 0 .915.885Zm.12-4.665V4.5a.165.165 0 0 1 .165-.195h12a.165.165 0 0 1 .18.165v3.75H13.11Z" fill="currentColor"></path></symbol></defs><use xlink:href="#forfait-reduction"></use></svg>