<svg xmlns:xlink="http://www.w3.org/1999/xlink" xmlns="http://www.w3.org/2000/svg" class="icon icon-forfait-telephone" aria-hidden="true" focusable="false" width="16"  height="28" ><defs><symbol fill="none" viewBox="0 0 16 28" id="forfait-telephone" xmlns="http://www.w3.org/2000/svg"><path fill-rule="evenodd" clip-rule="evenodd" d="M12.655 16.698c0 1.174-.96 2.134-2.134 2.134H5.407a2.141 2.141 0 0 1-2.134-2.134v-5.114c0-1.173.96-2.134 2.134-2.134h5.114c1.174 0 2.134.96 2.134 2.134v5.114ZM8.536 11.85c-.222.48-.71.728-1.088.553-.378-.176-.504-.708-.282-1.188.223-.48.71-.728 1.088-.552.378.174.505.706.282 1.187ZM6.7 15.397c.665-.9 1.65-1.472 2.458-.35.75 1.041 1.58 2.184 1.82 2.511.031.044.01.095-.058.1-.38.027-1.25.088-1.538-.307-.256-.35-.531-.734-.794-1.1l-.47-.653c-.328-.453-.804-.498-1.122-.059-.231.319-.552.757-.81 1.11-.14.189-.26.354-.339.462a1.78 1.78 0 0 1-.517.492c-.177.107-.276.045-.148-.13l.552-.757c.322-.442.627-.862.966-1.32Zm3.538-3.09c-.92.464-1.325.515-1.954.595-.147.018-.306.038-.486.065-.954.143-1.67.36-2.463 1.21-.2.21-.287.397.024.241.92-.463 1.325-.514 1.954-.593.147-.019.305-.039.485-.066.954-.143 1.67-.36 2.464-1.209.199-.212.287-.398-.024-.242Z" fill="currentColor"></path><path d="M7.98 25.867a1.02 1.02 0 1 0 0-2.038 1.02 1.02 0 0 0 0 2.038Z" fill="currentColor"></path><path fill-rule="evenodd" clip-rule="evenodd" d="M13.886 27.561H2.113c-.84 0-1.524-.683-1.524-1.523V1.962c0-.84.684-1.524 1.524-1.524h11.772c.84 0 1.524.684 1.524 1.524v24.076c0 .84-.683 1.523-1.523 1.523ZM2.113 1.488a.474.474 0 0 0-.474.474v1.65h12.72v-1.65a.474.474 0 0 0-.474-.474H2.113Zm12.246 3.174H1.639v17.456h12.72V4.662Zm0 18.506v2.87a.474.474 0 0 1-.474.474H2.113a.474.474 0 0 1-.474-.474v-2.87h12.72Z" fill="currentColor"></path></symbol></defs><use xlink:href="#forfait-telephone"></use></svg>