<svg xmlns:xlink="http://www.w3.org/1999/xlink" xmlns="http://www.w3.org/2000/svg" class="icon icon-favoris-inactif" aria-hidden="true" focusable="false" width="24"  height="24" ><defs><symbol fill="none" viewBox="0 0 24 24" id="favoris-inactif" xmlns="http://www.w3.org/2000/svg"><path d="M5 23.43a.662.662 0 0 1-.65-.75l1.07-7.41L.19 9.9a.66.66 0 0 1 .36-1.1l7.38-1.28L11.42.89a.68.68 0 0 1 1.16 0l3.49 6.63 7.38 1.28a.66.66 0 0 1 .36 1.1l-5.22 5.37 1.07 7.41a.66.66 0 0 1-.94.68L12 20.06l-6.72 3.3a.66.66 0 0 1-.28.07Zm7-4.76c.1 0 .2.025.29.07l5.89 2.9-.94-6.5a.66.66 0 0 1 .18-.55L22 9.88l-6.47-1.12a.66.66 0 0 1-.47-.34L12 2.61 8.94 8.42a.66.66 0 0 1-.47.34L2 9.88l4.58 4.71a.66.66 0 0 1 .18.55l-.94 6.5 5.89-2.9a.66.66 0 0 1 .29-.07Z" fill="currentColor"></path></symbol></defs><use xlink:href="#favoris-inactif"></use></svg>