<svg xmlns:xlink="http://www.w3.org/1999/xlink" xmlns="http://www.w3.org/2000/svg" class="icon icon-preferences-reglages" aria-hidden="true" focusable="false" width="26"  height="28" ><defs><symbol fill="none" viewBox="0 0 26 28" id="preferences-reglages" xmlns="http://www.w3.org/2000/svg"><path d="M5.144 24.43H.75a.75.75 0 1 0 0 1.5h4.373a3.378 3.378 0 0 1 .021-1.5ZM11.706 25.93a3.379 3.379 0 0 0-.021-1.5H24.75a.75.75 0 1 1 0 1.5H11.706ZM5.78 25.226a2.635 2.635 0 1 1 5.27 0 2.635 2.635 0 0 1-5.27 0ZM15.064 13.18H.75a.75.75 0 1 0 0 1.5h14.314a3.375 3.375 0 0 1 0-1.5ZM21.627 14.68a3.375 3.375 0 0 0 0-1.5h3.123a.75.75 0 1 1 0 1.5h-3.123ZM15.71 13.93a2.635 2.635 0 1 1 5.27 0 2.635 2.635 0 0 1-5.27 0ZM3.054 1.93H.75a.75.75 0 0 0 0 1.5h2.325a3.374 3.374 0 0 1-.02-1.5ZM9.616 3.43a3.374 3.374 0 0 0 .02-1.5H24.75a.75.75 0 1 1 0 1.5H9.616ZM3.71 2.635a2.635 2.635 0 1 1 5.27 0 2.635 2.635 0 0 1-5.27 0Z" fill="currentColor"></path></symbol></defs><use xlink:href="#preferences-reglages"></use></svg>