<svg xmlns:xlink="http://www.w3.org/1999/xlink" xmlns="http://www.w3.org/2000/svg" class="icon icon-accueil" aria-hidden="true" focusable="false" width="30"  height="30" ><defs><symbol fill="none" viewBox="0 0 30 30" id="accueil" xmlns="http://www.w3.org/2000/svg"><path d="M24.96 30H5.04c-1.487 0-2.696-1.29-2.696-2.875V11.998c0-.552.42-1 .937-1 .518 0 .938.448.938 1v15.127c0 .483.368.875.82.875h19.922c.452 0 .82-.392.82-.875V11.998c0-.552.42-1 .938-1s.937.448.937 1v15.127c0 1.586-1.209 2.875-2.695 2.875Z" fill="currentColor"></path><path d="M29.063 15.497a.906.906 0 0 1-.663-.293L16.74 2.767a2.356 2.356 0 0 0-3.48 0L1.6 15.204a.897.897 0 0 1-1.325 0 1.048 1.048 0 0 1 0-1.414l11.66-12.437c1.69-1.804 4.44-1.804 6.13 0l11.66 12.437c.366.39.366 1.024 0 1.414a.905.905 0 0 1-.663.293ZM18.75 30h-7.5c-.518 0-.938-.447-.938-1v-8.875c0-1.723 1.315-3.125 2.93-3.125h3.516c1.615 0 2.93 1.402 2.93 3.125v8.876c0 .552-.42 1-.938 1Zm-6.563-2h5.626v-7.875c0-.62-.474-1.125-1.055-1.125h-3.516c-.581 0-1.055.505-1.055 1.125v7.876Z" fill="currentColor"></path></symbol></defs><use xlink:href="#accueil"></use></svg>