<svg xmlns:xlink="http://www.w3.org/1999/xlink" xmlns="http://www.w3.org/2000/svg" class="icon icon-navigo" aria-hidden="true" focusable="false" width="20"  height="30" ><defs><symbol fill="none" viewBox="0 0 20 30" id="navigo" xmlns="http://www.w3.org/2000/svg"><path fill-rule="evenodd" clip-rule="evenodd" d="M8.837 5.678c-.07.194-.175.369-.312.522-.16.174-.359.311-.59.405a1.925 1.925 0 0 1-.73.142c-.246 0-.473-.042-.683-.122a1.594 1.594 0 0 1-.567-.382 1.623 1.623 0 0 1-.351-.54 1.748 1.748 0 0 1-.124-.65c0-.235.038-.453.115-.65.075-.196.189-.37.34-.522a1.65 1.65 0 0 1 .577-.39c.214-.082.447-.125.7-.125.25 0 .489.047.717.141a1.634 1.634 0 0 1 .906.919c.072.19.109.4.109.632 0 .22-.037.426-.107.62Zm-2.71-.277c.04.096.1.188.189.278.098.103.227.186.389.248a1.52 1.52 0 0 0 1.042-.002c.16-.062.295-.16.412-.296a.798.798 0 0 0 .145-.26.95.95 0 0 0 .051-.312.97.97 0 0 0-.059-.343.821.821 0 0 0-.175-.273 1.104 1.104 0 0 0-.393-.258 1.376 1.376 0 0 0-.495-.09c-.182 0-.359.03-.53.092a1.054 1.054 0 0 0-.422.283.753.753 0 0 0-.157.263.931.931 0 0 0-.056.323c0 .137.02.253.059.347Z" fill="currentColor"></path><path d="M4.337 10.566v.541a.119.119 0 0 0 .12.113h.506c.066 0 .12-.051.12-.116v-.538c0-.064-.056-.112-.12-.112h-.505c-.066-.001-.121.048-.121.112ZM5.526 11.107v-.54c0-.065.055-.114.12-.115h3.18c.066 0 .12.048.12.113v.537a.116.116 0 0 1-.118.116H6.146v.462l.487.215h.002c.384.17.78.345 1.192.524l.712.314.01.005.4.176v.564a281.193 281.193 0 0 0-1.062.474l-1.284.58-.027.012-.752.34-.097.041-.3-.666 2.567-1.086-2.402-.988a.14.14 0 0 1-.065-.121v-.954l-.001-.003Z" fill="currentColor"></path><path fill-rule="evenodd" clip-rule="evenodd" d="M9.625 20.356H8.7a2364.979 2364.979 0 0 0-1.902-.004c-.156-.002-.264-.002-.326-.002a3.651 3.651 0 0 1-.26-.524 1.228 1.228 0 0 1-.109-.45c0-.202.05-.32.124-.378.076-.066.234-.114.47-.12l.48-.004.495-.001h.31l.007-.002.003.002a.835.835 0 0 0 .38-.11 1.03 1.03 0 0 0 .337-.338c.088-.14.137-.327.18-.517.044-.19.058-.399.058-.625v-.733c0-.007.002-.015.004-.023v-1.534a.115.115 0 0 0-.082-.11.097.097 0 0 0-.038-.005h-.013v-.001H8.744l-.384-.005-1.306-.002c-.32.001-.57.032-.754.1-.179.069-.331.172-.454.307a1.285 1.285 0 0 0-.282.54c-.055.21-.082.446-.082.707 0 .169.003.3.008.399l.009.143.003.05.006.087.638.078-.008-.126a16.55 16.55 0 0 0-.015-.278 3.375 3.375 0 0 1-.006-.24c0-.152.007-.283.023-.393.016-.107.041-.207.077-.291a.558.558 0 0 1 .205-.268.667.667 0 0 1 .262-.096c.023.26.056.494.097.705.047.238.1.43.162.58.098.236.227.427.394.566a.91.91 0 0 0 .599.215.96.96 0 0 0 .39-.082l-.003.051-.001.02a.948.948 0 0 1-.066.27.497.497 0 0 1-.147.205.313.313 0 0 1-.196.06v.001h-.215c-.098 0-.217 0-.36-.002h-.119a35.653 35.653 0 0 0-.706-.006c-.32 0-.588.091-.784.281-.196.186-.293.443-.292.74 0 .152.037.329.107.537.059.177.154.38.283.62l-.308-.004v.718h3.417V22.15c-.005.16-.052.637-.509.927l.001.001-.863.623c-.876.631-.43 1.402.273 1.921.342.253.656.482.985.72v.001l.002.002.637.464c.136.1.185.023.1-.116a1.39 1.39 0 0 0-.383-.404l-.382-.279c-.272-.2-.604-.443-.847-.619-.343-.248-.308-.62.046-.876l.536-.386c.278-.2.568-.408.834-.602.197-.143.244-.469.25-.765v-.426h.008v-1.98Zm-1.407-4.78c-.11-.002-.262-.003-.451-.003v.001h-.245c-.074 0-.153 0-.244.002.006.087.02.207.038.355l.003.024c.03.234.07.424.124.577a.826.826 0 0 0 .158.287.284.284 0 0 0 .23.107c.112 0 .19-.033.25-.093a.672.672 0 0 0 .155-.283c.03-.097.052-.207.066-.33a3.688 3.688 0 0 0 .02-.515l-.001-.033v-.047l-.002-.049h-.1Z" fill="currentColor"></path><path d="M4.137 24.406c.137-.295.553-.395.928-.22.376.174.57.555.432.85-.137.296-.553.395-.928.221-.376-.174-.57-.555-.432-.85ZM5.612 22.839c.663.62.833 1.18.945 1.926.021.14.037.264.05.378.063.492.103.809.465 1.529.121.242-.024.173-.19.019-.662-.621-.832-1.181-.944-1.926-.021-.141-.037-.265-.051-.38-.062-.492-.102-.81-.464-1.527-.123-.244.024-.174.19-.02Z" fill="currentColor"></path><path fill-rule="evenodd" clip-rule="evenodd" d="M7.31 7.032c-.341 0-.703-.001-1.084-.006a20.835 20.835 0 0 0-.41 0H5.6c-.06 0-.11.046-.117.104l-.004-.002V7.5c0 .337.02.625.06.867.039.244.109.471.21.679.144.292.336.53.581.705.25.18.541.27.863.27.315 0 .589-.063.813-.19a1.63 1.63 0 0 0 .535-.498c.14-.204.245-.449.307-.731a3.69 3.69 0 0 0 .094-.817V7.74c.162.014.298.06.41.132.13.083.246.238.337.478.057.153.095.328.117.521.008.062.014.124.02.192.2-.22.375-.466.517-.731a2.575 2.575 0 0 0-.194-.523 1.49 1.49 0 0 0-.542-.581c-.233-.139-.541-.204-.92-.204-.202 0-.423 0-.666.004-.24.003-.478.003-.711.003Zm.757.7h.078l.179.001v.017a2.372 2.372 0 0 1-.2.966c-.086.18-.204.318-.356.423a.946.946 0 0 1-.55.156.982.982 0 0 1-.943-.618 1.94 1.94 0 0 1-.137-.45 3.007 3.007 0 0 1-.038-.49l.41-.005.213-.002c.234-.002.428-.002.582-.002.295 0 .548.001.762.003Z" fill="currentColor"></path><path fill-rule="evenodd" clip-rule="evenodd" d="M18.253 30h-.005l-16.081-.039c-.445 0-.864-.176-1.18-.493A1.659 1.659 0 0 1 .5 28.286l.065-26.62A1.673 1.673 0 0 1 2.235 0h.005l16.08.039c.445 0 .864.176 1.18.493.315.317.488.737.487 1.182l-.064 26.62a1.663 1.663 0 0 1-.493 1.18 1.661 1.661 0 0 1-1.177.486ZM2.236 1.152a.52.52 0 0 0-.52.517l-.064 26.62c0 .138.054.269.152.367a.514.514 0 0 0 .365.154l10.02.024-.068-27.659-9.885-.023Z" fill="currentColor"></path></symbol></defs><use xlink:href="#navigo"></use></svg>