<svg xmlns:xlink="http://www.w3.org/1999/xlink" xmlns="http://www.w3.org/2000/svg" class="icon icon-inconnu" aria-hidden="true" focusable="false" width="24"  height="24" ><defs><symbol fill="none" viewBox="0 0 24 24" id="inconnu" xmlns="http://www.w3.org/2000/svg"><path d="M10.671 13.336a4.029 4.029 0 0 0-.126 1.04h1.165c0-.462.074-.824.221-1.087a2.1 2.1 0 0 1 .583-.661c.241-.168.488-.32.74-.457.263-.147.514-.3.756-.457.242-.157.451-.341.63-.551.189-.21.336-.457.441-.74.105-.284.158-.625.158-1.024 0-.514-.09-.96-.268-1.339a2.708 2.708 0 0 0-.725-.945 2.779 2.779 0 0 0-1.008-.551 3.473 3.473 0 0 0-1.134-.189c-.462 0-.908.079-1.338.236-.431.158-.82.389-1.166.693a3.209 3.209 0 0 0-.787 1.103l.929.614c.147-.273.33-.52.551-.74.231-.231.499-.415.803-.552a2.36 2.36 0 0 1 .977-.204c.336 0 .65.068.945.204.294.137.53.342.708.615.19.262.284.593.284.992 0 .357-.073.667-.22.93a2.434 2.434 0 0 1-.567.66c-.221.18-.457.337-.71.473-.24.137-.456.268-.645.394-.315.2-.572.43-.772.693-.189.252-.33.535-.425.85ZM10.576 15.872V17.7h1.166v-1.827h-1.166Z" fill="currentColor"></path><path fill-rule="evenodd" clip-rule="evenodd" d="M23.25 12c0 6.213-5.037 11.25-11.25 11.25S.75 18.213.75 12 5.787.75 12 .75 23.25 5.787 23.25 12Zm-1.125 0c0 5.592-4.533 10.125-10.125 10.125S1.875 17.592 1.875 12 6.408 1.875 12 1.875 22.125 6.408 22.125 12Z" fill="currentColor"></path></symbol></defs><use xlink:href="#inconnu"></use></svg>